<svg width="205" height="106" fill="none" xmlns="http://www.w3.org/2000/svg"><path d="M192.969 102.5a.5.5 0 00.53-.468l.28-4.491a.5.5 0 10-.998-.062l-.249 3.992-3.992-.249a.499.499 0 10-.062.998l4.491.28zM2.042 30.5c3.028-.258 6.001-.49 8.922-.696l-.07-.997a627.18 627.18 0 00-8.936.696l.084.996zm26.794-1.646a358.38 358.38 0 0117.87-.183l.017-1a359.37 359.37 0 00-17.92.184l.034 1zm35.704.675c6.14.513 12.023 1.253 17.693 2.235l.171-.985c-5.701-.988-11.614-1.731-17.781-2.247l-.084.997zm35.08 6.204a145.78 145.78 0 0116.801 5.959l.391-.92a146.658 146.658 0 00-16.916-6l-.277.96zm32.741 13.934c5.038 2.91 9.997 6.157 14.929 9.76l.59-.808c-4.959-3.623-9.948-6.889-15.019-9.818l-.5.866zm28.854 20.919c4.321 3.764 8.659 7.817 13.049 12.173l.704-.71c-4.403-4.369-8.757-8.437-13.096-12.217l-.657.754zm25.425 25.086a482 482 0 015.985 6.66l.75-.662a486.897 486.897 0 00-5.998-6.674l-.737.676zm6.298 7.327a1 1 0 001.06-.936l.561-8.982a1 1 0 00-1.997-.125l-.498 7.985-7.984-.499a1.002 1.002 0 00-.125 1.997l8.983.56zM2.085 30.997c3.025-.256 5.996-.488 8.914-.694l-.14-1.995a628.4 628.4 0 00-8.944.697l.17 1.992zm26.768-1.643A357.88 357.88 0 0146.7 29.17l.032-2a359.741 359.741 0 00-17.945.184l.067 1.999zm35.645.673c6.127.512 11.996 1.25 17.65 2.23l.341-1.97c-5.717-.991-11.644-1.736-17.825-2.253l-.166 1.993zm34.983 6.186a145.164 145.164 0 0116.744 5.939l.783-1.84a147.125 147.125 0 00-16.974-6.02l-.553 1.921zm32.63 13.887c5.021 2.9 9.965 6.137 14.884 9.73l1.18-1.615c-4.973-3.632-9.977-6.908-15.064-9.847l-1 1.732zm28.775 20.863c4.312 3.756 8.642 7.802 13.025 12.151l1.409-1.42c-4.41-4.376-8.772-8.451-13.12-12.24l-1.314 1.509zm25.385 25.047a478.722 478.722 0 015.979 6.653l1.5-1.324a489.657 489.657 0 00-6.004-6.68l-1.475 1.35z" fill="#EAEBEF"/></svg>