<svg width="30" height="30" fill="none" xmlns="http://www.w3.org/2000/svg"><path d="M18.281 14.062h-1.875V15h1.875v-.938zm-9.843 0H6.562V15h1.875v-.938z" fill="#524440"/><path d="M27.886 13.003l-4.299-.718a.469.469 0 01-.36-.304L21.29 6.557a1.411 1.411 0 00-1.327-.932H4.411a1.412 1.412 0 00-1.327.932l-2.01 5.635c-.09.253-.136.519-.137.787v7.177a1.41 1.41 0 001.407 1.406h.506a3.277 3.277 0 006.488 0h11.325a3.277 3.277 0 006.487 0h.506a1.41 1.41 0 001.407-1.406v-5.77a1.396 1.396 0 00-1.177-1.383zM8.39 21.562a2.362 2.362 0 01-.343.82l-.295-.295-.665.666.295.295a2.36 2.36 0 01-.82.342v-.422h-.938v.422a2.36 2.36 0 01-.82-.342l.295-.295-.666-.666-.295.295a2.362 2.362 0 01-.342-.82h.422v-.938h-.422c.061-.292.177-.57.342-.82l.295.296.666-.666-.295-.295a2.36 2.36 0 01.82-.343v.422h.938v-.422c.292.062.57.178.82.343l-.295.295.665.665.295-.295c.165.25.282.528.343.82h-.422v.938h.422zm6.14-9.375H9.375v-3.75h5.156v3.75zm11.672 9.375a2.36 2.36 0 01-.342.82l-.295-.295-.666.666.295.295a2.36 2.36 0 01-.82.342v-.422h-.938v.422a2.36 2.36 0 01-.82-.342l.296-.295-.666-.666-.295.295a2.36 2.36 0 01-.343-.82h.422v-.938h-.422a2.36 2.36 0 01.343-.82l.295.296.666-.666-.296-.295a2.36 2.36 0 01.82-.343v.422h.938v-.422c.293.062.571.178.82.343l-.295.295.666.665.295-.295c.165.25.281.528.342.82h-.422v.938h.422zm1.922-3.75h-1.406v.938h1.406v1.406a.469.469 0 01-.469.469h-.506a3.277 3.277 0 00-6.487 0h-5.194v-7.5h5.625a.468.468 0 00.436-.643l-1.875-4.687a.469.469 0 00-.436-.295H5.634a.473.473 0 00-.45.332L3.77 12.52a.477.477 0 00.24.555c.065.033.137.05.21.05h10.31v7.5H9.337a3.277 3.277 0 00-6.487 0h-.506a.469.469 0 01-.469-.47v-2.812h1.406v-.937H1.875v-.938h1.406v-.937H1.875v-1.552a1.5 1.5 0 01.08-.473L3.97 6.87a.472.472 0 01.44-.309h15.554a.472.472 0 01.44.31l1.937 5.423a1.414 1.414 0 001.096.914l4.299.717a.45.45 0 01.253.136h-1.27a1.406 1.406 0 000 2.813h1.406v.937zm-12.656-5.625v-3.75H18.9l1.5 3.75h-4.931zm-7.031-3.75v3.75H4.851l1.13-3.75h2.455zm19.687 7.5h-1.406a.469.469 0 110-.938h1.406v.938z" fill="#524440"/><path d="M6.094 19.687a1.406 1.406 0 100 2.813 1.406 1.406 0 000-2.813zm0 1.875a.469.469 0 110-.938.469.469 0 010 .938zm17.812-1.875a1.406 1.406 0 100 2.812 1.406 1.406 0 000-2.812zm0 1.875a.469.469 0 110-.938.469.469 0 010 .938z" fill="#524440"/></svg>