<svg width="42" height="42" fill="none" xmlns="http://www.w3.org/2000/svg"><path d="M39.375 25.03v-2.06a7.88 7.88 0 00-7.219-7.842V11.65a3.117 3.117 0 00-4.987-2.494l-3.043 2.283a2.523 2.523 0 00-2.314 0l-3.043-2.283a3.118 3.118 0 00-4.988 2.494v4.265c.003.754.282 1.481.783 2.044a18.09 18.09 0 00-2.187 1.664l-.871.775-7.735 1.653a2.289 2.289 0 00-1.802 2.231v1.97h-.657a.656.656 0 00-.656.655v2.625a.656.656 0 00.656.657h4.653a3.933 3.933 0 007.757 0h15.212a3.932 3.932 0 007.757 0h2.028a2.62 2.62 0 00.656-5.157zm-2.859-.092a5.889 5.889 0 00-8.986 1.968h-1.936v-5.25H37.93c.088.432.132.872.132 1.313v1.969h-1.547zm-20.918 3.28h4.746v.657H15.71a5.857 5.857 0 00-.113-.656zm1.3-9.187a3.137 3.137 0 001.87-.623l1.576-1.181v3.117h-6.79a16.562 16.562 0 012.16-1.55c.375.156.778.237 1.184.237zm4.758-2.789l.156-.117a2.524 2.524 0 002.314 0l.155.117v12.633h-2.625V16.242zm9.188 4.102h-5.25v-3.117l1.575 1.18a3.092 3.092 0 003.675.038v1.899zm-5.25 7.875h1.464a5.8 5.8 0 00-.113.656h-1.351v-.656zm11.917-7.875h-5.355V16.44a6.574 6.574 0 015.355 3.904zm-9.555-10.14a1.804 1.804 0 012.888 1.444v4.266a1.805 1.805 0 01-2.888 1.444l-2.812-2.11c.116-.176.21-.366.28-.565l2.55 1.02.489-1.219-1.759-.703 1.759-.703-.488-1.219-2.55 1.02a2.68 2.68 0 00-.28-.565l2.811-2.11zm-3.675 3.577a1.312 1.312 0 11-2.625 0 1.312 1.312 0 012.625 0zm-9.187-2.133a1.805 1.805 0 012.887-1.443l2.812 2.109c-.116.177-.21.367-.28.566l-2.55-1.02-.488 1.219 1.758.702-1.758.703.488 1.22 2.55-1.021c.07.2.164.39.28.566l-2.812 2.109a1.804 1.804 0 01-2.887-1.444V11.65zM11.88 21.657h8.463v5.25h-5.217a5.885 5.885 0 00-9.271-1.718.65.65 0 00.05-.25v-2.001l5.975-1.28zm-7.835 1.68l.548-.118v1.063H3.28a.972.972 0 01.765-.945zm-.765 2.258h1.97c.086 0 .17-.018.25-.05-.206.22-.394.456-.564.706H3.281v-.656zm-1.31 1.968h2.313a5.82 5.82 0 00-.306 1.312H1.97v-1.312zm7.875 4.593a2.625 2.625 0 110-5.249 2.625 2.625 0 010 5.25zm0-6.562a3.942 3.942 0 00-3.879 3.281h-.662a4.587 4.587 0 019.082 0h-.663a3.942 3.942 0 00-3.878-3.281zm22.968 6.562a2.625 2.625 0 110-5.249 2.625 2.625 0 010 5.25zm0-6.562a3.942 3.942 0 00-3.878 3.281h-.663a4.587 4.587 0 019.083 0h-.663a3.942 3.942 0 00-3.879-3.281zm5.907 3.281h-.039a5.86 5.86 0 00-.96-2.625h.999a1.313 1.313 0 010 2.625z" fill="#fff"/><path d="M9.844 30.844a1.313 1.313 0 100-2.625 1.313 1.313 0 000 2.625zm22.969 0a1.313 1.313 0 100-2.625 1.313 1.313 0 000 2.625z" fill="#fff"/></svg>