<svg width="30" height="30" fill="none" xmlns="http://www.w3.org/2000/svg"><g clip-path="url(#clip0)"><path d="M29.5 8h-3.178A4.497 4.497 0 0023.5 0h-4.384A4.5 4.5 0 0015 2.683a4.5 4.5 0 00-4.116-2.685H6.5a4.497 4.497 0 00-2.822 8H.5a.5.5 0 00-.5.5v5a.5.5 0 00.5.5h1v15.5a.5.5 0 00.5.5h26a.5.5 0 00.5-.5V14h1a.5.5 0 00.5-.5v-5a.5.5 0 00-.5-.5zm-6.887-6.96c.041-.006.081-.014.122-.019.126-.015.253-.022.381-.023h.384A3.504 3.504 0 0127 4.5 3.504 3.504 0 0123.5 8h-1.174a4.495 4.495 0 00.093-6.923 4.14 4.14 0 01.194-.035zm-1.297.48A3.491 3.491 0 0119.5 7.999h-1.735l2.145-4.903a3.49 3.49 0 011.406-1.575zm-3.54 7.478h3.415l2.361 4.724L25.191 17H23.5a.5.5 0 00-.4.2l-.994 1.325-2.378-5.23-1.952-4.296zm.72 4H17.5v-2.192L18.497 13zM8.685 1.521a3.49 3.49 0 011.407 1.575L12.236 8H10.5a3.491 3.491 0 01-1.816-6.478zm3.54 7.478l-1.95 4.293-2.38 5.232L6.9 17.2a.5.5 0 00-.4-.2H4.809l1.641-3.276L8.809 9h3.415zM3 4.5A3.504 3.504 0 016.5 1h.384c.127.001.255.008.381.023.041.005.081.013.122.019.065.01.13.022.195.035A4.495 4.495 0 007.675 8H6.5A3.504 3.504 0 013 4.5zM1 13V9h6.691l-2 4H1zm11.5 16h-10V14h2.691l-1.638 3.277A.5.5 0 004 18h2.25l1.35 1.8a.5.5 0 00.854-.094L11.05 14h1.45v15zm0-16h-.996l.996-2.192V13zM11.007 2.696A4.477 4.477 0 009.703.999h1.181a3.5 3.5 0 013.207 2.097l.363.832L13 7.252l-1.993-4.556zM16.5 28.999h-3V9h3v20zM13.764 8l2.146-4.903A3.5 3.5 0 0119.116 1H20.3a4.477 4.477 0 00-1.304 1.697L16.673 8h-2.908zM27.5 29h-10V14h1.45l2.595 5.707a.5.5 0 00.855.093l1.35-1.8H26a.5.5 0 00.45-.723L24.809 14H27.5v15zM29 13h-4.691l-2-4H29v4z" fill="#524440"/></g><defs><clipPath id="clip0"><path fill="#fff" d="M0 0h30v30H0z"/></clipPath></defs></svg>