<svg width="30" height="30" fill="none" xmlns="http://www.w3.org/2000/svg"><g clip-path="url(#clip0)" fill="#524440"><path d="M21.175 17.342a.467.467 0 01-.331-.137l-8.169-8.168a.468.468 0 11.663-.663l8.169 8.168a.468.468 0 01-.332.8zm8.363 8.362a.468.468 0 01-.332-.137l-3.674-3.674a.468.468 0 11.663-.663l3.674 3.674a.468.468 0 01-.331.8z"/><path d="M27.65 27.674a.47.47 0 01-.339-.793l1.888-1.97a.469.469 0 01.676.65l-1.887 1.969a.468.468 0 01-.339.144zM9.031 13.15a.468.468 0 01-.331-.8l4.307-4.307a.468.468 0 11.663.663l-4.307 4.307a.47.47 0 01-.332.138z"/><path d="M13.339 8.843a.467.467 0 01-.332-.137l-5.58-5.58a.468.468 0 11.663-.663l5.58 5.58a.468.468 0 01-.331.8z"/><path d="M.464 7.237a.469.469 0 01-.225-.88l7.295-3.974a.468.468 0 11.448.822L.688 7.18a.469.469 0 01-.224.057zm2.656.664a.469.469 0 01-.224-.88l4.726-2.574a.47.47 0 01.447.823L3.344 7.844a.466.466 0 01-.223.057zm5.91 5.251H6.379a.468.468 0 110-.937h2.65a.468.468 0 110 .937zm-1.796-3.123H5.246a.468.468 0 110-.938h1.988a.468.468 0 110 .938z"/><path d="M6.38 13.152a.468.468 0 01-.332-.137L.133 7.099a.468.468 0 11.662-.663l5.916 5.915a.468.468 0 01-.332.801z"/><path d="M5.618 14.549a.468.468 0 01-.411-.693l.76-1.397a.468.468 0 11.823.449l-.76 1.397a.466.466 0 01-.412.244zm1.616-4.52a.467.467 0 01-.332-.8l2.651-2.652a.468.468 0 11.663.663L7.565 9.892a.468.468 0 01-.331.137z"/><path d="M9.885 7.377a.467.467 0 01-.332-.138L7.51 5.195a.468.468 0 11.662-.663l2.045 2.045a.468.468 0 01-.331.8zm-4.64 2.652a.467.467 0 01-.33-.137L2.787 7.765a.468.468 0 11.663-.663L5.577 9.23a.468.468 0 01-.332.8zM27.65 27.674l-.03-.001-1.012-.064a.468.468 0 01-.366-.215l-.558-.874a.469.469 0 01.79-.504l.43.673.776.049a.469.469 0 01-.03.936z"/><path d="M26.076 26.735h-.03l-1.012-.064a.468.468 0 01-.366-.215l-.558-.874a.469.469 0 11.79-.504l.43.673.775.048a.469.469 0 01-.029.936z"/><path d="M24.502 25.797l-.03-.001-1.013-.063a.468.468 0 01-.366-.216l-.557-.873a.469.469 0 11.79-.504l.43.672.774.049a.469.469 0 01-.028.936z"/><path d="M22.928 24.859l-.03-.001-1.013-.064a.468.468 0 01-.365-.215l-.558-.874a.469.469 0 11.79-.504l.43.673.775.049a.47.47 0 01-.03.936z"/><path d="M21.355 23.92l-.03-.001-1.013-.063a.468.468 0 01-.367-.215l-.557-.874a.469.469 0 11.79-.504l.43.673.775.048a.469.469 0 01-.028.936z"/><path d="M19.78 22.982l-.03-.001-1.012-.063a.469.469 0 01-.366-.216l-.558-.873a.47.47 0 01.79-.505l.43.673.775.049a.47.47 0 01-.03.936zM9.324 17.29a.468.468 0 01-.396-.217l-.557-.873a.469.469 0 11.79-.505l.558.873a.469.469 0 01-.395.721z"/><path d="M8.763 16.414h-.03l-1.012-.064a.468.468 0 01-.366-.216l-.558-.873a.469.469 0 11.79-.505l.43.673.776.05a.469.469 0 01-.03.935z"/><path d="M7.19 15.475h-.03l-1.013-.063a.468.468 0 01-.367-.216l-.557-.873a.469.469 0 11.79-.505l.43.673.775.048a.469.469 0 01-.028.936zm22.347 6.555H.47a.468.468 0 110-.937h29.068a.468.468 0 110 .937zm0-4.687H.47a.468.468 0 110-.938h29.068a.468.468 0 110 .938zM9.844 19.687H.469a.468.468 0 110-.938h9.375a.468.468 0 110 .938z"/><path d="M19.219 19.218a2.346 2.346 0 01-2.344-2.344.468.468 0 11.938 0c0 .775.63 1.406 1.406 1.406a.468.468 0 110 .938z"/><path d="M29.531 19.218H19.22a.468.468 0 110-.938h10.31a.468.468 0 110 .938z"/></g><defs><clipPath id="clip0"><path fill="#fff" d="M0 0h30v30H0z"/></clipPath></defs></svg>