<svg width="18" height="18" fill="none" xmlns="http://www.w3.org/2000/svg"><g clip-path="url(#clip0)"><path fill-rule="evenodd" clip-rule="evenodd" d="M5.123-.113c.96-.044 1.265-.054 3.71-.054 2.445 0 2.75.011 3.71.054.959.044 1.613.197 2.186.419.6.226 1.144.58 1.594 1.039.458.449.811.992 1.037 1.593.223.572.375 1.227.419 2.184.044.962.054 1.268.054 3.712s-.01 2.75-.054 3.71c-.043.957-.196 1.612-.419 2.184a4.423 4.423 0 01-1.037 1.595c-.45.458-.994.812-1.594 1.038-.573.222-1.227.374-2.185.418-.96.045-1.266.055-3.711.055s-2.75-.011-3.71-.055c-.958-.043-1.612-.196-2.185-.418a4.416 4.416 0 01-1.595-1.038A4.41 4.41 0 01.305 14.73c-.222-.572-.374-1.227-.418-2.184-.044-.962-.054-1.268-.054-3.711 0-2.445.01-2.751.054-3.71.043-.959.196-1.614.418-2.186.227-.6.581-1.145 1.04-1.594A4.393 4.393 0 012.937.307C3.51.085 4.164-.067 5.122-.112zm7.347 1.62c-.95-.043-1.234-.052-3.637-.052s-2.688.01-3.637.052c-.878.04-1.354.187-1.671.31-.42.164-.72.358-1.035.673a2.78 2.78 0 00-.673 1.035c-.123.318-.27.794-.31 1.672-.043.949-.052 1.234-.052 3.637 0 2.402.009 2.687.052 3.636.04.878.187 1.354.31 1.672.144.39.374.744.673 1.035.29.299.644.528 1.035.672.317.124.793.27 1.671.31.95.044 1.233.053 3.637.053s2.688-.01 3.637-.052c.878-.04 1.354-.187 1.671-.31.42-.164.72-.358 1.035-.673.299-.29.529-.645.673-1.035.123-.318.27-.794.31-1.672.043-.949.052-1.234.052-3.636 0-2.403-.009-2.688-.052-3.637-.04-.878-.186-1.354-.31-1.672a2.794 2.794 0 00-.673-1.035 2.793 2.793 0 00-1.035-.672c-.317-.124-.793-.27-1.671-.31zM7.683 11.609a3.002 3.002 0 102.162-5.601 3.003 3.003 0 00-2.162 5.601zM5.562 5.562a4.626 4.626 0 116.542 6.542 4.626 4.626 0 01-6.542-6.542zm8.923-.666a1.093 1.093 0 00-.767-1.89 1.094 1.094 0 10.767 1.89z" fill="#fff"/></g><defs><clipPath id="clip0"><path fill="#fff" d="M0 0h18v18H0z"/></clipPath></defs></svg>