<svg width="42" height="42" fill="none" xmlns="http://www.w3.org/2000/svg"><path d="M40.844 11.434L30.566 1.156A3.975 3.975 0 0027.774 0c-1.04 0-2.056.421-2.791 1.156L1.155 24.983A3.92 3.92 0 000 27.774a3.92 3.92 0 001.156 2.792l10.278 10.278A3.975 3.975 0 0014.226 42c1.04 0 2.056-.421 2.791-1.156l23.827-23.827A3.92 3.92 0 0042 14.226a3.92 3.92 0 00-1.156-2.792zm-4.147 5.898l.958.958L18.29 37.655l-.958-.958 19.365-19.365zM14.226 37.888L4.112 27.774 27.774 4.112l10.114 10.114-23.662 23.662zm-3.107-1.19l-.958.957-5.816-5.816.958-.958 5.816 5.816zm-5.816-12.03l-.958-.958L23.71 4.345l.958.958L5.303 24.668zM30.88 5.303l.958-.958 5.816 5.816-.958.958-5.816-5.816zm-4.94-3.189a2.614 2.614 0 011.833-.76c.683 0 1.351.278 1.834.76l1.273 1.273-.958.958-1.274-1.274c-.462-.459-1.286-.46-1.75.001l-1.274 1.273-.957-.958 1.272-1.273zM1.354 27.774c0-.692.27-1.344.76-1.834l1.272-1.272.958.957L3.071 26.9c-.23.23-.361.55-.361.874 0 .325.131.644.362.876l1.273 1.273-.958.958-1.273-1.273a2.577 2.577 0 01-.76-1.834zM16.06 39.886a2.613 2.613 0 01-1.834.76 2.615 2.615 0 01-1.834-.76l-1.273-1.273.958-.958 1.274 1.274c.231.23.55.361.875.361.324 0 .643-.131.876-.362l1.273-1.273.957.958-1.272 1.273zM39.886 16.06l-1.273 1.272-.958-.957 1.274-1.275c.23-.23.361-.55.361-.874a1.25 1.25 0 00-.362-.876l-1.273-1.273.958-.958 1.273 1.273c.49.49.76 1.142.76 1.834 0 .692-.27 1.344-.76 1.834z" fill="#fff"/><path d="M11.914 29.129l-.397.396a.98.98 0 01-1.355 0l-1.752-1.75L9.484 26.7a.98.98 0 011.355 0l.199.199.957-.958-.198-.2c-.875-.872-2.396-.873-3.27 0l-2.033 2.033 2.71 2.71c.874.873 2.396.874 3.27 0l.397-.397a.98.98 0 011.355 0l1.752 1.752-1.074 1.073a.98.98 0 01-1.355 0l-.199-.198-.957.958.198.199a2.3 2.3 0 001.635.677 2.3 2.3 0 001.636-.677l2.032-2.032-2.71-2.71c-.874-.874-2.396-.874-3.27 0zm1.354-3.387l2.99 2.99 3.667-3.667-2.99-2.99-3.667 3.667zm2.99 1.074l-1.075-1.074 1.752-1.752 1.075 1.075-1.752 1.751zm6.774-2.032l-.054-.054-1.2-6.003a2.584 2.584 0 00-.71-1.326l-.383-.383c-.49-.49-1.14-.76-1.834-.76a2.596 2.596 0 00-1.834 4.428l.794.793.958-.958-.794-.793a1.24 1.24 0 011.752-1.752l.383.383c.174.173.291.392.339.633l1.282 6.407 1.301 1.3 3.866-3.865-.958-.958-2.908 2.908zm3.213-13.045c-.58-.58-1.353-.9-2.173-.9A3.076 3.076 0 0021 13.91c0 .822.32 1.593.9 2.173l4.017 4.016c.58.58 1.352.9 2.172.9a3.076 3.076 0 003.072-3.073c0-.82-.32-1.593-.9-2.172l-4.016-4.016zm1.844 7.906c-.458 0-.89-.179-1.214-.503l-4.017-4.017a1.707 1.707 0 01-.503-1.213 1.72 1.72 0 011.717-1.719c.459 0 .89.18 1.215.504l4.017 4.016c.324.324.503.756.503 1.214a1.72 1.72 0 01-1.718 1.718zm-.315-12.474l-1.427 1.427.77 3.083 1.314-.33-.536-2.143 6.174 6.174.958-.958-7.253-7.253z" fill="#fff"/></svg>