<svg width="110" height="110" fill="none" xmlns="http://www.w3.org/2000/svg"><mask id="path-1-inside-1" fill="#fff"><path d="M110 55a54.995 54.995 0 01-28.12 47.983 54.995 54.995 0 01-55.605-1.081A54.996 54.996 0 01.042 52.862 55 55 0 0130.004 6.008l.666 1.305a53.535 53.535 0 1077.865 47.686H110z"/></mask><path d="M110 55a54.995 54.995 0 01-28.12 47.983 54.995 54.995 0 01-55.605-1.081A54.996 54.996 0 01.042 52.862 55 55 0 0130.004 6.008l.666 1.305a53.535 53.535 0 1077.865 47.686H110z" stroke="url(#paint0_linear)" stroke-width="4" mask="url(#path-1-inside-1)"/><circle cx="33.5" cy="4.5" r="3.75" stroke="#524440" stroke-width="1.5"/><defs><linearGradient id="paint0_linear" x1="23.5" y1="9" x2="110" y2="74.999" gradientUnits="userSpaceOnUse"><stop stop-color="#CA9652"/><stop offset="1" stop-color="#CA9652" stop-opacity="0"/></linearGradient></defs></svg>