<svg width="264" height="31" fill="none" xmlns="http://www.w3.org/2000/svg"><path d="M.88 26.238v-4.85h7.958v4.602c0 .94.277 1.7.83 2.28.552.58 1.326.87 2.32.87 1.493 0 2.515-.221 3.068-.663.553-.47.898-1.16 1.036-2.073.139-.94.208-1.907.208-2.901 0-1.023.013-1.88.041-2.57l-.041-.54-.083-1.16c-.139-1.437-.857-2.376-2.156-2.819-1.27-.442-4.2-.663-8.787-.663-.166 0-.373-.013-.622-.041a25.23 25.23 0 01-1.244-.373c-.608-.194-1.105-.884-1.492-2.073-.387-1.188-.58-3.302-.58-6.342 0-2.349.4-3.979 1.202-4.89.801-.913 2.294-1.52 4.477-1.825l1.45-.166L9.42 0h.87c.636 0 2.363.083 5.182.249 2.818.138 4.808.207 5.968.207l2.405.207-.58 2.363-1.783-.497-.788-.208-.953-.207a26.45 26.45 0 00-1.99-.29 14.707 14.707 0 00-2.238-.166c-2.183 0-3.703.415-4.56 1.244-.856.829-1.285 2.293-1.285 4.393 0 2.57.208 4.242.622 5.016.415.774 1.368 1.16 2.86 1.16l1.576.166h.29l3.854.125.622.041c2.128.276 3.51.857 4.145 1.741.664.857.995 2.598.995 5.223l-.041 1.782c0 3.814-.83 6.121-2.487 6.922-1.63.774-5.997 1.161-13.099 1.161-1.299 0-2.266-.041-2.901-.124-.636-.083-1.423-.249-2.363-.498-.912-.276-1.617-.704-2.114-1.285-.497-.58-.746-1.409-.746-2.487zm27.62-3.15V.538h8.373v24.54c0 1.464.304 2.514.912 3.15.608.636 1.645.953 3.11.953 2.652 0 3.978-1.298 3.978-3.896V.539h8.373V22.88l-.04.622c0 2.32-.374 3.924-1.12 4.808-.746.884-2.225 1.547-4.435 1.99l-2.86.414a20.69 20.69 0 01-2.363.124c-1.188 0-2.197-.013-3.026-.041-.802-.028-1.561-.055-2.28-.083-3.758-.36-6.135-.981-7.13-1.865-.994-.885-1.492-2.805-1.492-5.762zm32.509 7.295L55.33.54h8.456l4.394 25.7L72.698.54h2.404L69.88 30.383h-8.87zm33.391 0H77.156V.54h16.995l.58 2.155-.497-.041-2.03-.207a41.659 41.659 0 00-3.607-.25 60.642 60.642 0 00-2.694-.082c-.691 0-1.396.014-2.114.041h-2.156v1.161l.788.083.414.041 1.16.125c.802 0 1.3.663 1.493 1.99l.041.372v8.912c1.05 0 2.073-.027 3.068-.082a34.011 34.011 0 003.15-.332l1.16-.207v2.445l-1.035-.166c-1.548-.193-2.847-.29-3.897-.29a17.6 17.6 0 00-2.487.166V28.56l2.073.041c1.602 0 2.956-.069 4.062-.207a34.302 34.302 0 003.647-.663l-.87 2.652zm6.534 0H98.53V.54h9.699l11.358 25.368V.539h2.404v29.844h-9.534L100.934 4.808v25.575zm25.202 0V.54h8.374v29.844h-8.374zm20.882 0h-8.373V.788l2.569-.083 3.068-.125 5.886-.248 2.694-.083c4.201 0 6.826.373 7.876 1.119 1.078.718 1.616 2.694 1.616 5.927l.042 1.741v.498l-.083 1.368c0 1.437-.345 2.473-1.036 3.108-.691.636-1.921 1.078-3.689 1.327l-5.057.704 5.181.498c.138 0 .318.083.539.249.248.138.539.483.87 1.036l.249.622 3.357 11.937h-7.005c-.856 0-1.561-.594-2.114-1.782l-.29-.829-2.819-10.155a1.664 1.664 0 00-.331-.54c-.138-.193-.387-.372-.746-.538a2.47 2.47 0 00-1.037-.249 4.388 4.388 0 01-.497.042l-.58.082-.29.083v13.886zm-3.897-27.025l1.451.165c.636 0 1.078.056 1.326.166.277.11.525.332.747.663.248.304.373.664.373 1.078v9.492l.456.042h.621c1.382 0 2.501-.125 3.358-.373.856-.277 1.451-.622 1.782-1.037.359-.442.581-.925.663-1.45.083-.525.125-1.451.125-2.778V6.01c0-.304-.028-.566-.083-.787-.028-.249-.166-.719-.415-1.41-.248-.718-.884-1.188-1.906-1.409-.995-.249-3.537-.373-7.627-.373l-.871.042v1.285zm26.363 10.155L163.929.539h8.954l4.932 11.482L182.997.539h2.528l-6.715 15.42v14.424h-8.166v-12.31c0-.498.194-.912.581-1.244.414-.36.801-.567 1.16-.622l3.275-.248-3.233-.332c-.995-.11-1.645-.263-1.949-.456-.276-.221-.608-.774-.994-1.658zm39.62 16.87h-23.876v-1.202h23.876v1.202z" fill="#1F1816"/><path d="M214.414 23.088V.538h8.373v24.54c0 1.464.304 2.514.912 3.15.608.636 1.644.953 3.109.953 2.653 0 3.979-1.298 3.979-3.896V.539h8.373V22.88l-.041.622c0 2.32-.373 3.924-1.119 4.808-.747.884-2.225 1.547-4.436 1.99l-2.86.414a20.69 20.69 0 01-2.362.124 92.81 92.81 0 01-3.026-.041 567.36 567.36 0 01-2.28-.083c-3.758-.36-6.135-.981-7.13-1.865-.995-.885-1.492-2.805-1.492-5.762zm28.654 7.295h-2.405L247.047.54h9.285L264 30.383h-5.72c-1.078 0-1.879-.152-2.404-.456-.498-.331-.843-.884-1.036-1.658l-1.534-5.927-8.497.041-1.741 8zm2.279-10.445l7.379-.042-4.063-15.627-3.316 15.669z" fill="#524440"/></svg>