<svg width="264" height="31" fill="none" xmlns="http://www.w3.org/2000/svg"><path d="M0 26.238v-4.85h7.959v4.602c0 .94.276 1.7.829 2.28.552.58 1.326.87 2.32.87 1.493 0 2.515-.221 3.068-.663.553-.47.898-1.16 1.036-2.073.139-.94.208-1.907.208-2.901 0-1.023.014-1.88.041-2.57l-.041-.54-.083-1.16c-.138-1.437-.857-2.376-2.156-2.819-1.27-.442-4.2-.663-8.787-.663-.166 0-.373-.013-.622-.041-.221-.055-.636-.18-1.243-.373-.608-.194-1.106-.884-1.493-2.073-.387-1.188-.58-3.302-.58-6.342 0-2.349.4-3.979 1.202-4.89.801-.913 2.294-1.52 4.477-1.825l1.45-.166L8.54 0h.87c.636 0 2.363.083 5.182.249 2.818.138 4.808.207 5.969.207l2.404.207-.58 2.363-1.783-.497-.787-.208-.954-.207a26.45 26.45 0 00-1.99-.29 14.707 14.707 0 00-2.238-.166c-2.183 0-3.703.415-4.56 1.244-.856.829-1.284 2.293-1.284 4.393 0 2.57.207 4.242.621 5.016.415.774 1.368 1.16 2.86 1.16l1.576.166h.29l3.855.125.621.041c2.128.276 3.51.857 4.145 1.741.664.857.995 2.598.995 5.223l-.041 1.782c0 3.814-.83 6.121-2.487 6.922-1.63.774-5.997 1.161-13.099 1.161-1.298 0-2.266-.041-2.901-.124-.636-.083-1.423-.249-2.363-.498-.912-.276-1.616-.704-2.114-1.285C.25 28.145 0 27.316 0 26.238zm27.62-3.15V.538h8.373v24.54c0 1.464.304 2.514.913 3.15.607.636 1.644.953 3.108.953 2.653 0 3.98-1.298 3.98-3.896V.539h8.373V22.88l-.042.622c0 2.32-.373 3.924-1.119 4.808-.746.884-2.225 1.547-4.435 1.99l-2.86.414a20.69 20.69 0 01-2.363.124c-1.188 0-2.197-.013-3.026-.041-.801-.028-1.561-.055-2.28-.083-3.758-.36-6.134-.981-7.13-1.865-.994-.885-1.491-2.805-1.491-5.762zm32.509 7.295L54.45.54h8.456l4.394 25.7L71.818.54h2.404L69 30.383h-8.87zm33.391 0H76.277V.54H93.27l.58 2.155-.497-.041-2.03-.207a41.659 41.659 0 00-3.607-.25 60.642 60.642 0 00-2.694-.082c-.691 0-1.396.014-2.114.041h-2.156v1.161l.788.083.414.041 1.161.125c.801 0 1.299.663 1.492 1.99l.042.372v8.912c1.05 0 2.072-.027 3.067-.082a34.011 34.011 0 003.15-.332l1.16-.207v2.445l-1.035-.166c-1.548-.193-2.847-.29-3.897-.29a17.6 17.6 0 00-2.487.166V28.56l2.073.041c1.603 0 2.957-.069 4.062-.207a34.302 34.302 0 003.648-.663l-.87 2.652zm6.534 0H97.65V.54h9.699l11.358 25.368V.539h2.404v29.844h-9.534L100.054 4.808v25.575zm25.203 0V.54h8.373v29.844h-8.373zm20.881 0h-8.373V.788l2.57-.083 3.067-.125 5.886-.248 2.694-.083c4.201 0 6.826.373 7.876 1.119 1.078.718 1.617 2.694 1.617 5.927l.041 1.741v.498l-.083 1.368c0 1.437-.345 2.473-1.036 3.108-.691.636-1.921 1.078-3.689 1.327l-5.057.704 5.181.498c.138 0 .318.083.539.249.249.138.539.483.87 1.036l.249.622 3.358 11.937h-7.006c-.856 0-1.561-.594-2.114-1.782l-.29-.829-2.818-10.155a1.687 1.687 0 00-.332-.54c-.138-.193-.387-.372-.746-.538a2.47 2.47 0 00-1.036-.249 4.402 4.402 0 01-.498.042l-.58.082-.29.083v13.886zm-3.897-27.025l1.451.165c.636 0 1.078.056 1.327.166.276.11.525.332.746.663.248.304.373.664.373 1.078v9.492l.456.042h.621c1.382 0 2.501-.125 3.358-.373.857-.277 1.451-.622 1.782-1.037.36-.442.581-.925.664-1.45.082-.525.124-1.451.124-2.778V6.01c0-.304-.028-.566-.083-.787-.028-.249-.166-.719-.414-1.41-.249-.718-.885-1.188-1.907-1.409-.995-.249-3.537-.373-7.627-.373l-.871.042v1.285zm26.363 10.155L163.049.539h8.954l4.932 11.482L182.117.539h2.528l-6.715 15.42v14.424h-8.166v-12.31c0-.498.194-.912.581-1.244.414-.36.801-.567 1.16-.622l3.275-.248-3.233-.332c-.995-.11-1.644-.263-1.948-.456-.277-.221-.608-.774-.995-1.658zm39.62 16.87h-23.876v-1.202h23.876v1.202zm5.31-7.295V.54h8.373v24.539c0 1.465.304 2.515.912 3.15.608.636 1.644.954 3.109.954 2.653 0 3.979-1.3 3.979-3.897V.54h8.373v22.342l-.041.622c0 2.321-.373 3.924-1.119 4.808-.746.884-2.225 1.548-4.436 1.99l-2.86.414a20.66 20.66 0 01-2.362.125 91.8 91.8 0 01-3.026-.042 587.27 587.27 0 01-2.28-.083c-3.758-.359-6.135-.98-7.13-1.865-.994-.884-1.492-2.805-1.492-5.762zm28.654 7.296h-2.404L246.167.539h9.285l7.668 29.845h-5.72c-1.078 0-1.879-.152-2.404-.456-.497-.332-.843-.885-1.036-1.658l-1.534-5.928-8.497.042-1.741 8zm2.279-10.446l7.379-.041-4.062-15.627-3.317 15.668z" fill="#fff"/></svg>