<svg width="42" height="42" fill="none" xmlns="http://www.w3.org/2000/svg"><g clip-path="url(#clip0)"><path d="M42 12.747c0-1.05-.409-2.038-1.152-2.78A3.937 3.937 0 0035.4 9.86a2.206 2.206 0 00-2.644.357 2.206 2.206 0 00-.36 2.642l-6.155 6.155V9.808h3.94a.615.615 0 100-1.23h-3.94V5.435a.615.615 0 10-1.23 0v3.143H10.42a.615.615 0 100 1.23h2.684l-7.297 4.21c-.007.003-.014.008-.021.013V9.808h2.172a.615.615 0 100-1.23H5.786V5.435a.615.615 0 10-1.23 0v3.143H.615a.615.615 0 100 1.23h3.94v22.383H.615a.615.615 0 100 1.23h3.94v3.144a.615.615 0 101.23 0v-3.143H21.07a.615.615 0 000-1.23h-3.378l2.594-1.498a1.44 1.44 0 001.432.264l3.292-1.173v2.406h-1.48a.615.615 0 100 1.23h1.48v3.144a.615.615 0 101.23 0v-3.143h3.94a.615.615 0 100-1.23h-3.94v-2.846l1.095-.39a.638.638 0 00.059-.025l.013-.007a.581.581 0 00.095-.06l.014-.01a.61.61 0 00.047-.042l10.392-10.393a2.202 2.202 0 002.999-3.004A3.9 3.9 0 0042 12.747zm-2.022-1.91c.51.51.791 1.188.791 1.91 0 .643-.223 1.252-.634 1.738l-3.804-3.805a2.705 2.705 0 013.647.157zM23.626 28.97l-1.782-1.782 1.05-2.945c.542-.057.927.014 1.123.21.235.234.29.743.16 1.47v.01a.623.623 0 00-.008.124c.017.38.364.644.722.58.727-.13 1.236-.075 1.47.16.196.196.267.581.21 1.124l-2.945 1.05zm3.606-3.043a1.95 1.95 0 00-.963-.512l5.488-5.487a.615.615 0 10-.87-.87l-5.488 5.487a1.95 1.95 0 00-.512-.963 1.95 1.95 0 00-.963-.511l9.285-9.285 1.474 1.474-1.788 1.789a.615.615 0 00.87.87l1.789-1.788 1.474 1.474-9.285 9.285a1.948 1.948 0 00-.511-.963zM25.01 9.808v4.227l-.017-.01-7.296-4.217h7.313zm-19.222 6.37c0-.45.244-.87.635-1.095l8.347-4.815c.39-.225.875-.225 1.265.001l8.342 4.82c.39.227.633.647.633 1.097v4.06l-2.713 2.712V18.46c0-.889-.477-1.717-1.246-2.162l-4.402-2.543a2.503 2.503 0 00-2.496-.002l-4.404 2.541a2.504 2.504 0 00-1.25 2.161v5.085c0 .889.477 1.717 1.246 2.162l4.402 2.543a2.493 2.493 0 002.496.001l4.404-2.54.024-.015-1.213 3.406a1.473 1.473 0 00-.085.473l-3.746 2.161a1.27 1.27 0 01-1.266 0l-8.342-4.82a1.268 1.268 0 01-.63-1.098V16.18zm15.279 2.282v5.084c0 .45-.244.87-.635 1.096l-4.404 2.54c-.39.226-.875.226-1.265 0l-4.402-2.544a1.268 1.268 0 01-.632-1.096v-5.085c0-.45.243-.87.634-1.095l4.405-2.54a1.265 1.265 0 011.265 0l4.402 2.544c.39.225.632.645.632 1.096zM5.786 32.191v-4.226l.017.01 7.295 4.216H5.786zm15.519-2.393a.217.217 0 01-.235-.052.216.216 0 01-.053-.236l.37-1.038.956.956-1.038.37zM39.726 17.19a.973.973 0 01-1.374 0l-.018-.019-4.69-4.69-.02-.018A.973.973 0 0135 11.089l4.727 4.727a.973.973 0 010 1.374z" fill="#fff"/></g><defs><clipPath id="clip0"><path fill="#fff" d="M0 0h42v42H0z"/></clipPath></defs></svg>