<svg width="18" height="18" fill="none" xmlns="http://www.w3.org/2000/svg"><path d="M14.156 3.375c1.088 0 1.969.881 1.969 1.969v7.312a1.969 1.969 0 01-1.969 1.969H3.844a1.969 1.969 0 01-1.969-1.969V5.344c0-1.088.881-1.969 1.969-1.969h10.312zm1.031 3.507L9.226 10.16a.468.468 0 01-.404.023l-.048-.023-5.961-3.28v5.775a1.031 1.031 0 001.03 1.031h10.313a1.032 1.032 0 001.031-1.03V6.881zm-1.03-2.57H3.843a1.031 1.031 0 00-1.031 1.032v.468L9 9.215l6.188-3.403v-.468a1.032 1.032 0 00-1.032-1.032z" fill="#fff"/></svg>