<svg width="18" height="18" fill="none" xmlns="http://www.w3.org/2000/svg"><path d="M13.5 7.313h-1.125a1.689 1.689 0 00-1.688-1.688V4.5A2.816 2.816 0 0113.5 7.313z" fill="#524440"/><path d="M15.75 7.313h-1.125a3.942 3.942 0 00-3.938-3.938V2.25a5.068 5.068 0 015.063 5.063z" fill="#524440"/><path d="M14.625 16.313h-.095C3.476 15.677 1.907 6.35 1.688 3.504a1.687 1.687 0 011.687-1.817H6.34a1.125 1.125 0 011.047.71L8.24 4.5a1.125 1.125 0 01-.248 1.215l-1.198 1.21a5.265 5.265 0 004.264 4.274l1.22-1.209a1.125 1.125 0 011.221-.23l2.12.849a1.124 1.124 0 01.693 1.046v2.97a1.687 1.687 0 01-1.688 1.688zm-11.25-13.5a.563.563 0 00-.562.607C3.07 6.75 4.73 14.625 14.59 15.188a.562.562 0 00.596-.528v-3.005l-2.12-.85-1.614 1.604-.27-.034c-4.894-.613-5.558-5.507-5.558-5.558l-.034-.27 1.6-1.613-.844-2.12h-2.97z" fill="#fff"/></svg>