<svg width="18" height="18" fill="none" xmlns="http://www.w3.org/2000/svg"><path d="M9 4.5a2.812 2.812 0 100 5.625A2.812 2.812 0 009 4.5zM9 9a1.687 1.687 0 110-3.375A1.687 1.687 0 019 9zm0-7.875a6.195 6.195 0 00-6.188 6.188c0 2.207 1.02 4.547 2.951 6.767a17.896 17.896 0 002.914 2.693.562.562 0 00.646 0 17.898 17.898 0 002.914-2.693c1.93-2.22 2.95-4.56 2.95-6.768A6.195 6.195 0 009 1.125zm0 14.483c-1.162-.912-5.063-4.271-5.063-8.296a5.063 5.063 0 1110.126 0c0 4.025-3.9 7.384-5.063 8.296z" fill="#fff"/></svg>