<svg width="42" height="42" fill="none" xmlns="http://www.w3.org/2000/svg"><g clip-path="url(#clip0)" fill="#fff"><path d="M33.435 15.3a.806.806 0 00.73-.007c.654-.341 2.789-1.586 2.813-3.3.035-1.026-.897-2.082-2.052-2.063-.405 0-.796.116-1.13.332a2.04 2.04 0 00-1.118-.332c-1.067-.011-2.042.926-2.066 2.043-.036 1.777 2.152 2.996 2.823 3.327zm-.763-4.14h.006c.21 0 .41.08.565.227.308.29.793.29 1.103 0a.847.847 0 01.58-.227c.33.006.8.268.822.816-.012.81-1.16 1.67-1.96 2.122-.81-.436-1.963-1.274-1.946-2.1.009-.443.397-.835.83-.838zM7.83 15.3a.806.806 0 00.73-.007c.654-.341 2.788-1.586 2.813-3.3.035-1.026-.897-2.082-2.052-2.063-.406 0-.796.116-1.13.332a2.04 2.04 0 00-1.133-.332c-1.109.008-2.03.924-2.052 2.043C4.971 13.75 7.16 14.969 7.83 15.3zm-.763-4.14h.006c.21 0 .41.08.565.227.308.29.792.29 1.103 0a.847.847 0 01.58-.227c.33.006.8.268.822.816-.012.81-1.16 1.67-1.961 2.122-.809-.436-1.962-1.274-1.945-2.1.009-.443.397-.835.83-.838z"/><path d="M3.94 17.2h1.98c.07 0 .137.027.187.077l1.34 1.337a1.054 1.054 0 001.485.005l1.366-1.344a.263.263 0 01.185-.076h1.956c1.213 0 2.2-.986 2.2-2.199v-2.306c.298.107.62.167.954.167h2.653c.202 0 .395.087.529.239l1.34 1.523c.233.264.568.416.92.418h.005c.35 0 .684-.15.918-.41l1.373-1.536a.705.705 0 01.525-.234h2.623c.303 0 .594-.049.867-.138V15c0 1.213.987 2.2 2.2 2.2h1.979c.07 0 .137.027.187.077l1.34 1.337a1.054 1.054 0 001.485.005l1.366-1.344a.263.263 0 01.186-.076h1.955a2.201 2.201 0 002.2-2.199V9.291a2.202 2.202 0 00-2.2-2.199h-8.75V2.815A2.818 2.818 0 0026.48 0h-5.012a.615.615 0 100 1.23h5.012c.874 0 1.585.711 1.585 1.585v7.23c0 .874-.711 1.585-1.585 1.585h-2.623c-.55 0-1.076.235-1.442.645L21.04 13.81l-1.34-1.523a1.935 1.935 0 00-1.453-.657h-2.653c-.873 0-1.584-.71-1.584-1.584V2.815c0-.874.71-1.585 1.584-1.585h3.003a.615.615 0 100-1.23h-3.003a2.818 2.818 0 00-2.815 2.815v4.277H3.94a2.202 2.202 0 00-2.199 2.2V15c0 1.213.987 2.2 2.2 2.2zm34.104-8.877a.97.97 0 01.969.968v5.71a.97.97 0 01-.969.968h-1.956c-.394 0-.767.152-1.048.43l-1.242 1.221-1.217-1.214a1.486 1.486 0 00-1.056-.437h-1.98a.97.97 0 01-.968-.969v-3.08a2.804 2.804 0 00.717-1.874V8.322h8.75zM2.972 9.29a.97.97 0 01.968-.968h8.838v1.723c0 .67.236 1.287.63 1.771V15a.97.97 0 01-.969.969h-1.956a1.48 1.48 0 00-1.048.43L8.193 17.62l-1.217-1.214a1.485 1.485 0 00-1.056-.437H3.94A.97.97 0 012.972 15V9.291z"/><path d="M16.481 5.802c-.051 2.534 3.163 4.318 4.149 4.805a.91.91 0 00.823-.01c.962-.5 4.103-2.327 4.138-4.773.052-1.438-1.259-2.865-2.82-2.833-.632 0-1.238.205-1.734.583a2.816 2.816 0 00-1.734-.583c-1.525.01-2.79 1.272-2.822 2.811zm2.831-1.58h.011c.406 0 .793.154 1.093.436a.91.91 0 001.242 0 1.627 1.627 0 011.114-.437c.755-.013 1.61.671 1.589 1.585-.02 1.362-1.775 2.783-3.333 3.624-1.58-.81-3.345-2.208-3.317-3.603.018-.864.75-1.6 1.601-1.606zm21.202 33.044v-8.962c0-3.688-3-6.689-6.689-6.689-1.06 0-2.116.255-3.052.736a.615.615 0 10.562 1.095 5.465 5.465 0 017.949 4.859v7.876l-.05-.023-3.098-1.277v-1.203c1.184-1.182 2.094-3.078 2.094-4.822 0-2.246-1-4.011-2.675-4.721a.617.617 0 00-.477-.002.64.64 0 00-.364.437 4.438 4.438 0 01-3.4 3.383l-1.408.301c-.237.046-.484.33-.485.725.043 1.727.938 3.558 2.094 4.707v1.195l-2.448 1.009a3.061 3.061 0 00-.7-.633v-6.953c0-1.127.34-2.21.985-3.13a.615.615 0 10-1.007-.706 6.648 6.648 0 00-1.209 3.836v6.383L23.77 33.3v-2.337c1.54-1.249 2.454-3.495 2.624-5.704.807-.58 1.278-1.75 1.538-2.687a2.283 2.283 0 00-.3-1.88 2.256 2.256 0 00-.926-.794 2.33 2.33 0 00-2.093-2.744 2.35 2.35 0 00-1.21.217 2.706 2.706 0 00-3.707-1.122 2.315 2.315 0 00-1.444-.499c-1.037 0-1.92.666-2.224 1.614a3.059 3.059 0 00-2.492 3.02c0 .687.227 1.346.644 1.884a7.8 7.8 0 00.104 1.593 2.928 2.928 0 001.437 2.017c.055.401.133.8.235 1.191.072.232.372.542.75.44a.615.615 0 00.44-.752 8.86 8.86 0 01-.236-1.278c-.027-.238.062-.342.601-.605.365-.175.831-.398 1.121-.857 1.226.137 2.595-.545 3.26-1.591.42.273 1.055.517 1.713.451.314.67.757.976 1.097 1.211.367.253.48.331.482.795-.128 2.876-1.718 5.845-4.166 5.845-1.352 0-2.26-.86-2.784-1.58a.615.615 0 10-.996.723c.314.431.659.798 1.03 1.098V33.3l-4.076 1.68a3.075 3.075 0 00-1.23.921l-2.476-1.02V32.99c.867-.77 1.607-1.895 1.997-3.129a.615.615 0 00.431-.276c.64-1 1.868-4.03-.101-6.024-.774-.784-1.863-.948-2.762-.776a1.958 1.958 0 00-.129-.237c-.83-1.299-2.978-1.48-4.889-.415a.615.615 0 10.6 1.075c1.433-.8 2.839-.644 3.253.003.171.268.182.68.03 1.13-.226.668-.874 1.53-2.014 1.945a7.224 7.224 0 00-2.78 1.82c-.232-.811-.366-1.97-.048-3.024a.615.615 0 00-1.178-.355c-.568 1.882-.011 4.042.543 4.908.1.157.264.258.446.28.395 1.208 1.127 2.311 1.98 3.07v1.897c-.056.025-3.073 1.263-3.133 1.293a2.658 2.658 0 00-1.617 2.45v1.94c0 .792.645 1.436 1.437 1.436h36.897c.792 0 1.437-.644 1.437-1.436v-1.94c0-.49-.134-.956-.372-1.358zM24.593 22.008a.615.615 0 00-.783-.42 1.393 1.393 0 01-1.586-.545.615.615 0 00-1.094.153 2.333 2.333 0 01-2.221 1.609c-.114 0-.39-.043-.541-.071a.615.615 0 00-.716.471c-.053.241-.236.35-.672.559-.325.155-.753.36-1.03.752a1.683 1.683 0 01-.456-.881c-.134-.717-.075-1.523-.075-1.53a.616.616 0 00-.162-.467 1.84 1.84 0 01-.49-1.253c0-1.005.785-1.815 1.79-1.844a.615.615 0 00.594-.558 1.101 1.101 0 011.102-1.003c.347 0 .668.16.88.44a.615.615 0 00.896.09 1.475 1.475 0 012.438.942.615.615 0 001.085.324c.236-.284.583-.43.954-.397.524.046.955.476 1.002 1 .02.223-.026.442-.132.635a.615.615 0 00.475.909c.27.022.543.157.758.452.17.255.22.571.137.867-.172.622-.39 1.141-.624 1.513-.207-.326-.488-.52-.721-.68-.353-.243-.631-.435-.808-1.067zm6.978 7.148a5.674 5.674 0 004.11-3.531c.836.653 1.319 1.81 1.319 3.231 0 2.208-1.922 4.762-3.175 4.762-1.162 0-2.897-2.174-3.145-4.27l.891-.192zM19.926 40.77a12.09 12.09 0 00-2.29-5.878l1.103-.455a3.437 3.437 0 004.56 0l1.086.448a12.094 12.094 0 00-2.31 5.885h-2.149zm5.638-5.4l1.814.748a1.842 1.842 0 011.144 1.709v2.943h-5.206a10.848 10.848 0 012.248-5.4zm-4.546-3.412c.545 0 1.052-.098 1.52-.278v1.786a2.207 2.207 0 01-3.04 0v-1.784c.481.182.99.276 1.52.276zm-8.732 8.812h-1.073l1.073-1.246v1.245zm.007-3.14L9.59 40.77h-2.8l-2.82-3.777 2.372-.977a2.854 2.854 0 003.67 0L12.4 37a3.09 3.09 0 00-.107.63zm-.356-13.205c1.071 1.084.734 2.73.312 3.76-.404-.4-.984-.914-1.685-1.363a2.967 2.967 0 01-1.013-1.056c.226-.32.407-.666.53-1.032.084-.246.136-.491.158-.73.511-.104 1.22-.063 1.698.42zM4.921 29.05a5.975 5.975 0 012.401-1.61 4.845 4.845 0 001.352-.753c.308.448.726.85 1.226 1.17a9.232 9.232 0 011.519 1.238c-.475 2.02-2.129 3.702-3.244 3.702-1.115 0-2.793-1.71-3.254-3.747zm3.254 4.977c.356 0 .72-.084 1.08-.237v1.252a1.626 1.626 0 01-2.16 0v-1.254c.362.154.726.24 1.08.24zm-5.83 6.536v-1.94c0-.425.186-.817.496-1.084l2.412 3.23H2.552a.206.206 0 01-.206-.206zm11.171-2.737c0-.752.45-1.423 1.145-1.71l1.798-.74a10.843 10.843 0 012.227 5.392h-5.17v-2.942zm16.236 2.943v-2.943c0-.29-.041-.572-.117-.84l1.885-.777c.024 1.55.167 3.179 1.03 4.56h-2.798zm2.993-5.478v-.71c.36.17.724.267 1.08.267.356 0 .72-.096 1.08-.268v.714c0 1.846 0 3.751-1.08 5.155-1.08-1.402-1.08-3.309-1.08-5.157v-.001zm6.91 5.272a.206.206 0 01-.206.206H35.1c.863-1.382 1.007-3.01 1.03-4.56l2.635 1.085c.54.223.89.745.89 1.33v1.939z"/></g><defs><clipPath id="clip0"><path fill="#fff" d="M0 0h42v42H0z"/></clipPath></defs></svg>