<svg width="42" height="42" fill="none" xmlns="http://www.w3.org/2000/svg"><g clip-path="url(#clip0)" fill="#fff"><path d="M40.202 14.898h-5.319l-.036-.776a.936.936 0 00-.446-.755l-1.287-.79.796-.365a.938.938 0 00.46-1.241l-.902-1.965a.936.936 0 00-.696-.532l-1.638-.275.668-.831a.938.938 0 00-.099-1.28L30.092 4.62a.935.935 0 00-.85-.218l-1.468.352.304-.82a.937.937 0 00-.552-1.204l-2.027-.752a.936.936 0 00-.869.116l-1.352.964-.115-1.06a.94.94 0 00-.975-.835l-2.178.101a.935.935 0 00-.755.446l-.79 1.288-.364-.796a.937.937 0 00-1.242-.46l-1.416.65a.94.94 0 00-.496.55l-.726 2.143-.965-.776a.938.938 0 00-1.279.1l-1.062 1.165a.94.94 0 00-.242.7l.16 2.134-1.011-.375a.938.938 0 00-1.204.553l-.542 1.46a.94.94 0 00.039.74l1.001 2.03-1.23.133a.938.938 0 00-.834.974l.045.975H1.798A1.8 1.8 0 000 16.696v12.425a1.8 1.8 0 001.798 1.798h1.066L1.457 39.06a1.519 1.519 0 001.496 1.777H4.25c.661 0 1.242-.422 1.445-1.052l1.417-4.388H34.89l1.417 4.388c.203.63.784 1.053 1.445 1.053h1.296a1.52 1.52 0 001.496-1.778l-.564-3.266a.615.615 0 10-1.213.21l.565 3.266a.288.288 0 01-.284.337H37.75a.288.288 0 01-.274-.2l-3.303-10.233h3.412l.69 3.99a.615.615 0 101.212-.21l-.654-3.78h1.368A1.8 1.8 0 0042 27.376v-10.68a1.8 1.8 0 00-1.798-1.798zm-30.535-.905a.937.937 0 00.739-1.345l-1.132-2.292.396-1.066 1.165.432a.936.936 0 001.259-.948l-.184-2.465.79-.867c.836.573 1.197 1.247 1.926 1.034a.937.937 0 00.625-.598l.82-2.42 1.034-.475.473 1.03a.937.937 0 001.65.098l.995-1.625 1.746-.08.14 1.284a.936.936 0 001.475.662l1.634-1.166 1.604.595-.393 1.062a.935.935 0 001.096 1.236l1.853-.444 1.292 1.177-.81 1.008a.936.936 0 00.576 1.51l1.98.331.713 1.556-1.03.472a.937.937 0 00-.098 1.65l1.625.995.026.564h-5.915l-.003-.099a6.738 6.738 0 00-7.046-6.421c-3.537.164-6.316 3.04-6.424 6.52H8.329l-.035-.755 1.373-.15zm11.187-2.034a3.16 3.16 0 00-3.002 2.94h-2.358a5.506 5.506 0 015.25-5.292 5.508 5.508 0 015.761 5.25v.041h-2.357a3.158 3.158 0 00-3.294-2.939zm2.06 2.94h-3.828a1.929 1.929 0 011.825-1.71 1.928 1.928 0 012.002 1.71zM4.523 39.406a.287.287 0 01-.275.2H2.953a.288.288 0 01-.284-.337l1.444-8.35h3.15l-2.74 8.487zm29.968-5.241H7.508l1.048-3.247h6.285c.929 0 1.685-.756 1.685-1.684v-.06h3.859v.245a3.066 3.066 0 003.062 3.062 3.066 3.066 0 003.063-3.062v-.246h6.37l1.612 4.992zm-17.966-6.222v-2.801h2.76a1.1 1.1 0 011.099 1.1v1.7h-3.86zm5.09 1.476v-.246h3.663v.246c0 1.01-.822 1.832-1.832 1.832a1.834 1.834 0 01-1.832-1.832zm19.154-2.044a.568.568 0 01-.568.568H21.615v-1.702a2.333 2.333 0 00-2.33-2.33h-2.76v-1.025c0-.93-.755-1.685-1.684-1.685H6.757a.615.615 0 000 1.23h8.084c.25 0 .454.204.454.455v6.348c0 .25-.204.454-.454.454H1.798a.568.568 0 01-.568-.568v-6.688h2.65a.615.615 0 100-1.231H1.23v-4.506c0-.313.255-.567.568-.567h38.404c.313 0 .568.254.568.567v10.68z"/><path d="M2.957 26.06a2.363 2.363 0 002.36 2.361 2.363 2.363 0 002.36-2.36 2.363 2.363 0 00-2.36-2.361 2.363 2.363 0 00-2.36 2.36zm3.49 0a1.131 1.131 0 01-2.26 0c0-.623.507-1.13 1.13-1.13.623 0 1.13.507 1.13 1.13zm4.762 2.361a2.363 2.363 0 002.36-2.36 2.363 2.363 0 00-2.36-2.36 2.363 2.363 0 00-2.36 2.36 2.363 2.363 0 002.36 2.36zm0-3.49a1.131 1.131 0 010 2.26c-.623 0-1.13-.507-1.13-1.13 0-.623.507-1.13 1.13-1.13z"/></g><defs><clipPath id="clip0"><path fill="#fff" d="M0 0h42v42H0z"/></clipPath></defs></svg>