<svg width="0" height="0" class="hidden"><symbol xmlns="http://www.w3.org/2000/svg" viewBox="0 0 18 18" id="inst"><g clip-path="url(#clip0)"><path fill-rule="evenodd" clip-rule="evenodd" d="M5.123-.113c.96-.044 1.265-.054 3.71-.054 2.445 0 2.75.011 3.71.054.959.044 1.613.197 2.186.419.6.226 1.144.58 1.594 1.039.458.449.811.992 1.037 1.593.223.572.375 1.227.419 2.184.044.962.054 1.268.054 3.712s-.01 2.75-.054 3.71c-.043.957-.196 1.612-.419 2.184a4.423 4.423 0 01-1.037 1.595c-.45.458-.994.812-1.594 1.038-.573.222-1.227.374-2.185.418-.96.045-1.266.055-3.711.055s-2.75-.011-3.71-.055c-.958-.043-1.612-.196-2.185-.418a4.416 4.416 0 01-1.595-1.038A4.41 4.41 0 01.305 14.73c-.222-.572-.374-1.227-.418-2.184-.044-.962-.054-1.268-.054-3.711 0-2.445.01-2.751.054-3.71.043-.959.196-1.614.418-2.186.227-.6.581-1.145 1.04-1.594A4.393 4.393 0 012.937.307C3.51.085 4.164-.067 5.122-.112zm7.347 1.62c-.95-.043-1.234-.052-3.637-.052s-2.688.01-3.637.052c-.878.04-1.354.187-1.671.31-.42.164-.72.358-1.035.673a2.78 2.78 0 00-.673 1.035c-.123.318-.27.794-.31 1.672-.043.949-.052 1.234-.052 3.637 0 2.402.009 2.687.052 3.636.04.878.187 1.354.31 1.672.144.39.374.744.673 1.035.29.299.644.528 1.035.672.317.124.793.27 1.671.31.95.044 1.233.053 3.637.053s2.688-.01 3.637-.052c.878-.04 1.354-.187 1.671-.31.42-.164.72-.358 1.035-.673.299-.29.529-.645.673-1.035.123-.318.27-.794.31-1.672.043-.949.052-1.234.052-3.636 0-2.403-.009-2.688-.052-3.637-.04-.878-.186-1.354-.31-1.672a2.794 2.794 0 00-.673-1.035 2.793 2.793 0 00-1.035-.672c-.317-.124-.793-.27-1.671-.31zM7.683 11.609a3.002 3.002 0 102.162-5.601 3.003 3.003 0 00-2.162 5.601zM5.562 5.562a4.626 4.626 0 116.542 6.542 4.626 4.626 0 01-6.542-6.542zm8.923-.666a1.093 1.093 0 00-.767-1.89 1.094 1.094 0 10.767 1.89z" fill="currentColor"/></g><defs><clipPath id="clip0"><path fill="#fff" d="M0 0h18v18H0z"/></clipPath></defs></symbol><symbol fill="none" xmlns="http://www.w3.org/2000/svg" viewBox="0 0 264 31" id="logo"><path d="M.88 26.238v-4.85h7.958v4.602c0 .94.277 1.7.83 2.28.552.58 1.326.87 2.32.87 1.493 0 2.515-.221 3.068-.663.553-.47.898-1.16 1.036-2.073.139-.94.208-1.907.208-2.901 0-1.023.013-1.88.041-2.57l-.041-.54-.083-1.16c-.139-1.437-.857-2.376-2.156-2.819-1.27-.442-4.2-.663-8.787-.663-.166 0-.373-.013-.622-.041a25.23 25.23 0 01-1.244-.373c-.608-.194-1.105-.884-1.492-2.073-.387-1.188-.58-3.302-.58-6.342 0-2.349.4-3.979 1.202-4.89.801-.913 2.294-1.52 4.477-1.825l1.45-.166L9.42 0h.87c.636 0 2.363.083 5.182.249 2.818.138 4.808.207 5.968.207l2.405.207-.58 2.363-1.783-.497-.788-.208-.953-.207a26.45 26.45 0 00-1.99-.29 14.707 14.707 0 00-2.238-.166c-2.183 0-3.703.415-4.56 1.244-.856.829-1.285 2.293-1.285 4.393 0 2.57.208 4.242.622 5.016.415.774 1.368 1.16 2.86 1.16l1.576.166h.29l3.854.125.622.041c2.128.276 3.51.857 4.145 1.741.664.857.995 2.598.995 5.223l-.041 1.782c0 3.814-.83 6.121-2.487 6.922-1.63.774-5.997 1.161-13.099 1.161-1.299 0-2.266-.041-2.901-.124-.636-.083-1.423-.249-2.363-.498-.912-.276-1.617-.704-2.114-1.285-.497-.58-.746-1.409-.746-2.487zm27.62-3.15V.538h8.373v24.54c0 1.464.304 2.514.912 3.15.608.636 1.645.953 3.11.953 2.652 0 3.978-1.298 3.978-3.896V.539h8.373V22.88l-.04.622c0 2.32-.374 3.924-1.12 4.808-.746.884-2.225 1.547-4.435 1.99l-2.86.414a20.69 20.69 0 01-2.363.124c-1.188 0-2.197-.013-3.026-.041-.802-.028-1.561-.055-2.28-.083-3.758-.36-6.135-.981-7.13-1.865-.994-.885-1.492-2.805-1.492-5.762zm32.509 7.295L55.33.54h8.456l4.394 25.7L72.698.54h2.404L69.88 30.383h-8.87zm33.391 0H77.156V.54h16.995l.58 2.155-.497-.041-2.03-.207a41.659 41.659 0 00-3.607-.25 60.642 60.642 0 00-2.694-.082c-.691 0-1.396.014-2.114.041h-2.156v1.161l.788.083.414.041 1.16.125c.802 0 1.3.663 1.493 1.99l.041.372v8.912c1.05 0 2.073-.027 3.068-.082a34.011 34.011 0 003.15-.332l1.16-.207v2.445l-1.035-.166c-1.548-.193-2.847-.29-3.897-.29a17.6 17.6 0 00-2.487.166V28.56l2.073.041c1.602 0 2.956-.069 4.062-.207a34.302 34.302 0 003.647-.663l-.87 2.652zm6.534 0H98.53V.54h9.699l11.358 25.368V.539h2.404v29.844h-9.534L100.934 4.808v25.575zm25.202 0V.54h8.374v29.844h-8.374zm20.882 0h-8.373V.788l2.569-.083 3.068-.125 5.886-.248 2.694-.083c4.201 0 6.826.373 7.876 1.119 1.078.718 1.616 2.694 1.616 5.927l.042 1.741v.498l-.083 1.368c0 1.437-.345 2.473-1.036 3.108-.691.636-1.921 1.078-3.689 1.327l-5.057.704 5.181.498c.138 0 .318.083.539.249.248.138.539.483.87 1.036l.249.622 3.357 11.937h-7.005c-.856 0-1.561-.594-2.114-1.782l-.29-.829-2.819-10.155a1.664 1.664 0 00-.331-.54c-.138-.193-.387-.372-.746-.538a2.47 2.47 0 00-1.037-.249 4.388 4.388 0 01-.497.042l-.58.082-.29.083v13.886zm-3.897-27.025l1.451.165c.636 0 1.078.056 1.326.166.277.11.525.332.747.663.248.304.373.664.373 1.078v9.492l.456.042h.621c1.382 0 2.501-.125 3.358-.373.856-.277 1.451-.622 1.782-1.037.359-.442.581-.925.663-1.45.083-.525.125-1.451.125-2.778V6.01c0-.304-.028-.566-.083-.787-.028-.249-.166-.719-.415-1.41-.248-.718-.884-1.188-1.906-1.409-.995-.249-3.537-.373-7.627-.373l-.871.042v1.285zm26.363 10.155L163.929.539h8.954l4.932 11.482L182.997.539h2.528l-6.715 15.42v14.424h-8.166v-12.31c0-.498.194-.912.581-1.244.414-.36.801-.567 1.16-.622l3.275-.248-3.233-.332c-.995-.11-1.645-.263-1.949-.456-.276-.221-.608-.774-.994-1.658zm39.62 16.87h-23.876v-1.202h23.876v1.202z" fill="#1F1816"/><path d="M214.414 23.088V.538h8.373v24.54c0 1.464.304 2.514.912 3.15.608.636 1.644.953 3.109.953 2.653 0 3.979-1.298 3.979-3.896V.539h8.373V22.88l-.041.622c0 2.32-.373 3.924-1.119 4.808-.747.884-2.225 1.547-4.436 1.99l-2.86.414a20.69 20.69 0 01-2.362.124 92.81 92.81 0 01-3.026-.041 567.36 567.36 0 01-2.28-.083c-3.758-.36-6.135-.981-7.13-1.865-.995-.885-1.492-2.805-1.492-5.762zm28.654 7.295h-2.405L247.047.54h9.285L264 30.383h-5.72c-1.078 0-1.879-.152-2.404-.456-.498-.331-.843-.884-1.036-1.658l-1.534-5.927-8.497.041-1.741 8zm2.279-10.445l7.379-.042-4.063-15.627-3.316 15.669z" fill="#524440"/></symbol><symbol xmlns="http://www.w3.org/2000/svg" viewBox="0 0 30 30" id="handsaw"><g clip-path="url(#clip0)" fill="currentColor"><path d="M21.175 17.342a.467.467 0 01-.331-.137l-8.169-8.168a.468.468 0 11.663-.663l8.169 8.168a.468.468 0 01-.332.8zm8.363 8.362a.468.468 0 01-.332-.137l-3.674-3.674a.468.468 0 11.663-.663l3.674 3.674a.468.468 0 01-.331.8z"/><path d="M27.65 27.674a.47.47 0 01-.339-.793l1.888-1.97a.469.469 0 01.676.65l-1.887 1.969a.468.468 0 01-.339.144zM9.031 13.15a.468.468 0 01-.331-.8l4.307-4.307a.468.468 0 11.663.663l-4.307 4.307a.47.47 0 01-.332.138z"/><path d="M13.339 8.843a.467.467 0 01-.332-.137l-5.58-5.58a.468.468 0 11.663-.663l5.58 5.58a.468.468 0 01-.331.8z"/><path d="M.464 7.237a.469.469 0 01-.225-.88l7.295-3.974a.468.468 0 11.448.822L.688 7.18a.469.469 0 01-.224.057zm2.656.664a.469.469 0 01-.224-.88l4.726-2.574a.47.47 0 01.447.823L3.344 7.844a.466.466 0 01-.223.057zm5.91 5.251H6.379a.468.468 0 110-.937h2.65a.468.468 0 110 .937zm-1.796-3.123H5.246a.468.468 0 110-.938h1.988a.468.468 0 110 .938z"/><path d="M6.38 13.152a.468.468 0 01-.332-.137L.133 7.099a.468.468 0 11.662-.663l5.916 5.915a.468.468 0 01-.332.801z"/><path d="M5.618 14.549a.468.468 0 01-.411-.693l.76-1.397a.468.468 0 11.823.449l-.76 1.397a.466.466 0 01-.412.244zm1.616-4.52a.467.467 0 01-.332-.8l2.651-2.652a.468.468 0 11.663.663L7.565 9.892a.468.468 0 01-.331.137z"/><path d="M9.885 7.377a.467.467 0 01-.332-.138L7.51 5.195a.468.468 0 11.662-.663l2.045 2.045a.468.468 0 01-.331.8zm-4.64 2.652a.467.467 0 01-.33-.137L2.787 7.765a.468.468 0 11.663-.663L5.577 9.23a.468.468 0 01-.332.8zM27.65 27.674l-.03-.001-1.012-.064a.468.468 0 01-.366-.215l-.558-.874a.469.469 0 01.79-.504l.43.673.776.049a.469.469 0 01-.03.936z"/><path d="M26.076 26.735h-.03l-1.012-.064a.468.468 0 01-.366-.215l-.558-.874a.469.469 0 11.79-.504l.43.673.775.048a.469.469 0 01-.029.936z"/><path d="M24.502 25.797l-.03-.001-1.013-.063a.468.468 0 01-.366-.216l-.557-.873a.469.469 0 11.79-.504l.43.672.774.049a.469.469 0 01-.028.936z"/><path d="M22.928 24.859l-.03-.001-1.013-.064a.468.468 0 01-.365-.215l-.558-.874a.469.469 0 11.79-.504l.43.673.775.049a.47.47 0 01-.03.936z"/><path d="M21.355 23.92l-.03-.001-1.013-.063a.468.468 0 01-.367-.215l-.557-.874a.469.469 0 11.79-.504l.43.673.775.048a.469.469 0 01-.028.936z"/><path d="M19.78 22.982l-.03-.001-1.012-.063a.469.469 0 01-.366-.216l-.558-.873a.47.47 0 01.79-.505l.43.673.775.049a.47.47 0 01-.03.936zM9.324 17.29a.468.468 0 01-.396-.217l-.557-.873a.469.469 0 11.79-.505l.558.873a.469.469 0 01-.395.721z"/><path d="M8.763 16.414h-.03l-1.012-.064a.468.468 0 01-.366-.216l-.558-.873a.469.469 0 11.79-.505l.43.673.776.05a.469.469 0 01-.03.935z"/><path d="M7.19 15.475h-.03l-1.013-.063a.468.468 0 01-.367-.216l-.557-.873a.469.469 0 11.79-.505l.43.673.775.048a.469.469 0 01-.028.936zm22.347 6.555H.47a.468.468 0 110-.937h29.068a.468.468 0 110 .937zm0-4.687H.47a.468.468 0 110-.938h29.068a.468.468 0 110 .938zM9.844 19.687H.469a.468.468 0 110-.938h9.375a.468.468 0 110 .938z"/><path d="M19.219 19.218a2.346 2.346 0 01-2.344-2.344.468.468 0 11.938 0c0 .775.63 1.406 1.406 1.406a.468.468 0 110 .938z"/><path d="M29.531 19.218H19.22a.468.468 0 110-.938h10.31a.468.468 0 110 .938z"/></g><defs><clipPath id="clip0"><path fill="#fff" d="M0 0h30v30H0z"/></clipPath></defs></symbol><symbol xmlns="http://www.w3.org/2000/svg" viewBox="0 0 30 30" id="wood-board"><path d="M28.522 5.178h-8.588v-3.7a.41.41 0 00-.41-.41h-9.047a.41.41 0 00-.41.41v1.645H1.479a.41.41 0 00-.41.41v22.933a.41.41 0 00.41.41h8.998a.41.41 0 00.41-.41v-1.645h8.227v3.7a.41.41 0 00.41.41h8.998a.41.41 0 00.41-.41V5.588a.41.41 0 00-.41-.41zM10.067 26.056H4.969v-3.7a.41.41 0 00-.82 0v3.7h-2.26V3.943h2.26V6.55a.41.41 0 10.82 0V3.943h2.122V15.95a.41.41 0 10.82 0V3.943h2.156v22.113zm.82-24.168h2.14V6.55a.41.41 0 10.821 0V1.888h2.304v8.782a.41.41 0 10.82 0V1.888h2.142V24h-5.266v-8.533a.41.41 0 00-.82 0V24h-2.141V1.888zM28.112 28.11h-5.096v-3.7a.41.41 0 10-.82 0v3.7h-2.262V5.998h5.203v5.187a.41.41 0 10.82 0V5.998h2.157l-.002 22.113z" fill="currentColor"/><path d="M13.438 11.813a.41.41 0 00.41-.41V9.348a.41.41 0 10-.82 0v2.055a.41.41 0 00.41.41zm3.125 5.652a.41.41 0 00.41-.41v-4.016a.41.41 0 00-.82 0v4.016a.41.41 0 00.41.41zm0 4.397a.41.41 0 00.41-.41v-1.607a.41.41 0 00-.82 0v1.607a.41.41 0 00.41.41zM22.605 8.04a.41.41 0 00-.41.41v8.605a.41.41 0 10.82 0V8.45a.41.41 0 00-.41-.41zm2.942 5.999a.41.41 0 00-.41.41v11.365a.41.41 0 10.82 0V14.449a.409.409 0 00-.41-.41zm-2.942 6.515a.41.41 0 00-.41.41v1.104a.41.41 0 10.82 0v-1.104a.41.41 0 00-.41-.41zM4.558 9.522a.41.41 0 00-.41.41v8.366a.41.41 0 00.82 0V9.933a.41.41 0 00-.41-.41zm2.942 10.2a.41.41 0 00-.41.41v2.055a.41.41 0 00.82 0v-2.055a.41.41 0 00-.41-.41z" fill="currentColor"/></symbol><symbol xmlns="http://www.w3.org/2000/svg" viewBox="0 0 30 30" id="car"><path d="M18.281 14.062h-1.875V15h1.875v-.938zm-9.843 0H6.562V15h1.875v-.938z" fill="currentColor"/><path d="M27.886 13.003l-4.299-.718a.469.469 0 01-.36-.304L21.29 6.557a1.411 1.411 0 00-1.327-.932H4.411a1.412 1.412 0 00-1.327.932l-2.01 5.635c-.09.253-.136.519-.137.787v7.177a1.41 1.41 0 001.407 1.406h.506a3.277 3.277 0 006.488 0h11.325a3.277 3.277 0 006.487 0h.506a1.41 1.41 0 001.407-1.406v-5.77a1.396 1.396 0 00-1.177-1.383zM8.39 21.562a2.362 2.362 0 01-.343.82l-.295-.295-.665.666.295.295a2.36 2.36 0 01-.82.342v-.422h-.938v.422a2.36 2.36 0 01-.82-.342l.295-.295-.666-.666-.295.295a2.362 2.362 0 01-.342-.82h.422v-.938h-.422c.061-.292.177-.57.342-.82l.295.296.666-.666-.295-.295a2.36 2.36 0 01.82-.343v.422h.938v-.422c.292.062.57.178.82.343l-.295.295.665.665.295-.295c.165.25.282.528.343.82h-.422v.938h.422zm6.14-9.375H9.375v-3.75h5.156v3.75zm11.672 9.375a2.36 2.36 0 01-.342.82l-.295-.295-.666.666.295.295a2.36 2.36 0 01-.82.342v-.422h-.938v.422a2.36 2.36 0 01-.82-.342l.296-.295-.666-.666-.295.295a2.36 2.36 0 01-.343-.82h.422v-.938h-.422a2.36 2.36 0 01.343-.82l.295.296.666-.666-.296-.295a2.36 2.36 0 01.82-.343v.422h.938v-.422c.293.062.571.178.82.343l-.295.295.666.665.295-.295c.165.25.281.528.342.82h-.422v.938h.422zm1.922-3.75h-1.406v.938h1.406v1.406a.469.469 0 01-.469.469h-.506a3.277 3.277 0 00-6.487 0h-5.194v-7.5h5.625a.468.468 0 00.436-.643l-1.875-4.687a.469.469 0 00-.436-.295H5.634a.473.473 0 00-.45.332L3.77 12.52a.477.477 0 00.24.555c.065.033.137.05.21.05h10.31v7.5H9.337a3.277 3.277 0 00-6.487 0h-.506a.469.469 0 01-.469-.47v-2.812h1.406v-.937H1.875v-.938h1.406v-.937H1.875v-1.552a1.5 1.5 0 01.08-.473L3.97 6.87a.472.472 0 01.44-.309h15.554a.472.472 0 01.44.31l1.937 5.423a1.414 1.414 0 001.096.914l4.299.717a.45.45 0 01.253.136h-1.27a1.406 1.406 0 000 2.813h1.406v.937zm-12.656-5.625v-3.75H18.9l1.5 3.75h-4.931zm-7.031-3.75v3.75H4.851l1.13-3.75h2.455zm19.687 7.5h-1.406a.469.469 0 110-.938h1.406v.938z" fill="currentColor"/><path d="M6.094 19.687a1.406 1.406 0 100 2.813 1.406 1.406 0 000-2.813zm0 1.875a.469.469 0 110-.938.469.469 0 010 .938zm17.812-1.875a1.406 1.406 0 100 2.812 1.406 1.406 0 000-2.812zm0 1.875a.469.469 0 110-.938.469.469 0 010 .938z" fill="currentColor"/></symbol><symbol xmlns="http://www.w3.org/2000/svg" viewBox="0 0 30 30" id="gift-box"><g clip-path="url(#clip0)"><path d="M29.5 8h-3.178A4.497 4.497 0 0023.5 0h-4.384A4.5 4.5 0 0015 2.683a4.5 4.5 0 00-4.116-2.685H6.5a4.497 4.497 0 00-2.822 8H.5a.5.5 0 00-.5.5v5a.5.5 0 00.5.5h1v15.5a.5.5 0 00.5.5h26a.5.5 0 00.5-.5V14h1a.5.5 0 00.5-.5v-5a.5.5 0 00-.5-.5zm-6.887-6.96c.041-.006.081-.014.122-.019.126-.015.253-.022.381-.023h.384A3.504 3.504 0 0127 4.5 3.504 3.504 0 0123.5 8h-1.174a4.495 4.495 0 00.093-6.923 4.14 4.14 0 01.194-.035zm-1.297.48A3.491 3.491 0 0119.5 7.999h-1.735l2.145-4.903a3.49 3.49 0 011.406-1.575zm-3.54 7.478h3.415l2.361 4.724L25.191 17H23.5a.5.5 0 00-.4.2l-.994 1.325-2.378-5.23-1.952-4.296zm.72 4H17.5v-2.192L18.497 13zM8.685 1.521a3.49 3.49 0 011.407 1.575L12.236 8H10.5a3.491 3.491 0 01-1.816-6.478zm3.54 7.478l-1.95 4.293-2.38 5.232L6.9 17.2a.5.5 0 00-.4-.2H4.809l1.641-3.276L8.809 9h3.415zM3 4.5A3.504 3.504 0 016.5 1h.384c.127.001.255.008.381.023.041.005.081.013.122.019.065.01.13.022.195.035A4.495 4.495 0 007.675 8H6.5A3.504 3.504 0 013 4.5zM1 13V9h6.691l-2 4H1zm11.5 16h-10V14h2.691l-1.638 3.277A.5.5 0 004 18h2.25l1.35 1.8a.5.5 0 00.854-.094L11.05 14h1.45v15zm0-16h-.996l.996-2.192V13zM11.007 2.696A4.477 4.477 0 009.703.999h1.181a3.5 3.5 0 013.207 2.097l.363.832L13 7.252l-1.993-4.556zM16.5 28.999h-3V9h3v20zM13.764 8l2.146-4.903A3.5 3.5 0 0119.116 1H20.3a4.477 4.477 0 00-1.304 1.697L16.673 8h-2.908zM27.5 29h-10V14h1.45l2.595 5.707a.5.5 0 00.855.093l1.35-1.8H26a.5.5 0 00.45-.723L24.809 14H27.5v15zM29 13h-4.691l-2-4H29v4z" fill="currentColor"/></g><defs><clipPath id="clip0"><path fill="#fff" d="M0 0h30v30H0z"/></clipPath></defs></symbol><symbol xmlns="http://www.w3.org/2000/svg" viewBox="0 0 42 42" id="rating"><g clip-path="url(#clip0)" fill="currentColor"><path d="M33.435 15.3a.806.806 0 00.73-.007c.654-.341 2.789-1.586 2.813-3.3.035-1.026-.897-2.082-2.052-2.063-.405 0-.796.116-1.13.332a2.04 2.04 0 00-1.118-.332c-1.067-.011-2.042.926-2.066 2.043-.036 1.777 2.152 2.996 2.823 3.327zm-.763-4.14h.006c.21 0 .41.08.565.227.308.29.793.29 1.103 0a.847.847 0 01.58-.227c.33.006.8.268.822.816-.012.81-1.16 1.67-1.96 2.122-.81-.436-1.963-1.274-1.946-2.1.009-.443.397-.835.83-.838zM7.83 15.3a.806.806 0 00.73-.007c.654-.341 2.788-1.586 2.813-3.3.035-1.026-.897-2.082-2.052-2.063-.406 0-.796.116-1.13.332a2.04 2.04 0 00-1.133-.332c-1.109.008-2.03.924-2.052 2.043C4.971 13.75 7.16 14.969 7.83 15.3zm-.763-4.14h.006c.21 0 .41.08.565.227.308.29.792.29 1.103 0a.847.847 0 01.58-.227c.33.006.8.268.822.816-.012.81-1.16 1.67-1.961 2.122-.809-.436-1.962-1.274-1.945-2.1.009-.443.397-.835.83-.838z"/><path d="M3.94 17.2h1.98c.07 0 .137.027.187.077l1.34 1.337a1.054 1.054 0 001.485.005l1.366-1.344a.263.263 0 01.185-.076h1.956c1.213 0 2.2-.986 2.2-2.199v-2.306c.298.107.62.167.954.167h2.653c.202 0 .395.087.529.239l1.34 1.523c.233.264.568.416.92.418h.005c.35 0 .684-.15.918-.41l1.373-1.536a.705.705 0 01.525-.234h2.623c.303 0 .594-.049.867-.138V15c0 1.213.987 2.2 2.2 2.2h1.979c.07 0 .137.027.187.077l1.34 1.337a1.054 1.054 0 001.485.005l1.366-1.344a.263.263 0 01.186-.076h1.955a2.201 2.201 0 002.2-2.199V9.291a2.202 2.202 0 00-2.2-2.199h-8.75V2.815A2.818 2.818 0 0026.48 0h-5.012a.615.615 0 100 1.23h5.012c.874 0 1.585.711 1.585 1.585v7.23c0 .874-.711 1.585-1.585 1.585h-2.623c-.55 0-1.076.235-1.442.645L21.04 13.81l-1.34-1.523a1.935 1.935 0 00-1.453-.657h-2.653c-.873 0-1.584-.71-1.584-1.584V2.815c0-.874.71-1.585 1.584-1.585h3.003a.615.615 0 100-1.23h-3.003a2.818 2.818 0 00-2.815 2.815v4.277H3.94a2.202 2.202 0 00-2.199 2.2V15c0 1.213.987 2.2 2.2 2.2zm34.104-8.877a.97.97 0 01.969.968v5.71a.97.97 0 01-.969.968h-1.956c-.394 0-.767.152-1.048.43l-1.242 1.221-1.217-1.214a1.486 1.486 0 00-1.056-.437h-1.98a.97.97 0 01-.968-.969v-3.08a2.804 2.804 0 00.717-1.874V8.322h8.75zM2.972 9.29a.97.97 0 01.968-.968h8.838v1.723c0 .67.236 1.287.63 1.771V15a.97.97 0 01-.969.969h-1.956a1.48 1.48 0 00-1.048.43L8.193 17.62l-1.217-1.214a1.485 1.485 0 00-1.056-.437H3.94A.97.97 0 012.972 15V9.291z"/><path d="M16.481 5.802c-.051 2.534 3.163 4.318 4.149 4.805a.91.91 0 00.823-.01c.962-.5 4.103-2.327 4.138-4.773.052-1.438-1.259-2.865-2.82-2.833-.632 0-1.238.205-1.734.583a2.816 2.816 0 00-1.734-.583c-1.525.01-2.79 1.272-2.822 2.811zm2.831-1.58h.011c.406 0 .793.154 1.093.436a.91.91 0 001.242 0 1.627 1.627 0 011.114-.437c.755-.013 1.61.671 1.589 1.585-.02 1.362-1.775 2.783-3.333 3.624-1.58-.81-3.345-2.208-3.317-3.603.018-.864.75-1.6 1.601-1.606zm21.202 33.044v-8.962c0-3.688-3-6.689-6.689-6.689-1.06 0-2.116.255-3.052.736a.615.615 0 10.562 1.095 5.465 5.465 0 017.949 4.859v7.876l-.05-.023-3.098-1.277v-1.203c1.184-1.182 2.094-3.078 2.094-4.822 0-2.246-1-4.011-2.675-4.721a.617.617 0 00-.477-.002.64.64 0 00-.364.437 4.438 4.438 0 01-3.4 3.383l-1.408.301c-.237.046-.484.33-.485.725.043 1.727.938 3.558 2.094 4.707v1.195l-2.448 1.009a3.061 3.061 0 00-.7-.633v-6.953c0-1.127.34-2.21.985-3.13a.615.615 0 10-1.007-.706 6.648 6.648 0 00-1.209 3.836v6.383L23.77 33.3v-2.337c1.54-1.249 2.454-3.495 2.624-5.704.807-.58 1.278-1.75 1.538-2.687a2.283 2.283 0 00-.3-1.88 2.256 2.256 0 00-.926-.794 2.33 2.33 0 00-2.093-2.744 2.35 2.35 0 00-1.21.217 2.706 2.706 0 00-3.707-1.122 2.315 2.315 0 00-1.444-.499c-1.037 0-1.92.666-2.224 1.614a3.059 3.059 0 00-2.492 3.02c0 .687.227 1.346.644 1.884a7.8 7.8 0 00.104 1.593 2.928 2.928 0 001.437 2.017c.055.401.133.8.235 1.191.072.232.372.542.75.44a.615.615 0 00.44-.752 8.86 8.86 0 01-.236-1.278c-.027-.238.062-.342.601-.605.365-.175.831-.398 1.121-.857 1.226.137 2.595-.545 3.26-1.591.42.273 1.055.517 1.713.451.314.67.757.976 1.097 1.211.367.253.48.331.482.795-.128 2.876-1.718 5.845-4.166 5.845-1.352 0-2.26-.86-2.784-1.58a.615.615 0 10-.996.723c.314.431.659.798 1.03 1.098V33.3l-4.076 1.68a3.075 3.075 0 00-1.23.921l-2.476-1.02V32.99c.867-.77 1.607-1.895 1.997-3.129a.615.615 0 00.431-.276c.64-1 1.868-4.03-.101-6.024-.774-.784-1.863-.948-2.762-.776a1.958 1.958 0 00-.129-.237c-.83-1.299-2.978-1.48-4.889-.415a.615.615 0 10.6 1.075c1.433-.8 2.839-.644 3.253.003.171.268.182.68.03 1.13-.226.668-.874 1.53-2.014 1.945a7.224 7.224 0 00-2.78 1.82c-.232-.811-.366-1.97-.048-3.024a.615.615 0 00-1.178-.355c-.568 1.882-.011 4.042.543 4.908.1.157.264.258.446.28.395 1.208 1.127 2.311 1.98 3.07v1.897c-.056.025-3.073 1.263-3.133 1.293a2.658 2.658 0 00-1.617 2.45v1.94c0 .792.645 1.436 1.437 1.436h36.897c.792 0 1.437-.644 1.437-1.436v-1.94c0-.49-.134-.956-.372-1.358zM24.593 22.008a.615.615 0 00-.783-.42 1.393 1.393 0 01-1.586-.545.615.615 0 00-1.094.153 2.333 2.333 0 01-2.221 1.609c-.114 0-.39-.043-.541-.071a.615.615 0 00-.716.471c-.053.241-.236.35-.672.559-.325.155-.753.36-1.03.752a1.683 1.683 0 01-.456-.881c-.134-.717-.075-1.523-.075-1.53a.616.616 0 00-.162-.467 1.84 1.84 0 01-.49-1.253c0-1.005.785-1.815 1.79-1.844a.615.615 0 00.594-.558 1.101 1.101 0 011.102-1.003c.347 0 .668.16.88.44a.615.615 0 00.896.09 1.475 1.475 0 012.438.942.615.615 0 001.085.324c.236-.284.583-.43.954-.397.524.046.955.476 1.002 1 .02.223-.026.442-.132.635a.615.615 0 00.475.909c.27.022.543.157.758.452.17.255.22.571.137.867-.172.622-.39 1.141-.624 1.513-.207-.326-.488-.52-.721-.68-.353-.243-.631-.435-.808-1.067zm6.978 7.148a5.674 5.674 0 004.11-3.531c.836.653 1.319 1.81 1.319 3.231 0 2.208-1.922 4.762-3.175 4.762-1.162 0-2.897-2.174-3.145-4.27l.891-.192zM19.926 40.77a12.09 12.09 0 00-2.29-5.878l1.103-.455a3.437 3.437 0 004.56 0l1.086.448a12.094 12.094 0 00-2.31 5.885h-2.149zm5.638-5.4l1.814.748a1.842 1.842 0 011.144 1.709v2.943h-5.206a10.848 10.848 0 012.248-5.4zm-4.546-3.412c.545 0 1.052-.098 1.52-.278v1.786a2.207 2.207 0 01-3.04 0v-1.784c.481.182.99.276 1.52.276zm-8.732 8.812h-1.073l1.073-1.246v1.245zm.007-3.14L9.59 40.77h-2.8l-2.82-3.777 2.372-.977a2.854 2.854 0 003.67 0L12.4 37a3.09 3.09 0 00-.107.63zm-.356-13.205c1.071 1.084.734 2.73.312 3.76-.404-.4-.984-.914-1.685-1.363a2.967 2.967 0 01-1.013-1.056c.226-.32.407-.666.53-1.032.084-.246.136-.491.158-.73.511-.104 1.22-.063 1.698.42zM4.921 29.05a5.975 5.975 0 012.401-1.61 4.845 4.845 0 001.352-.753c.308.448.726.85 1.226 1.17a9.232 9.232 0 011.519 1.238c-.475 2.02-2.129 3.702-3.244 3.702-1.115 0-2.793-1.71-3.254-3.747zm3.254 4.977c.356 0 .72-.084 1.08-.237v1.252a1.626 1.626 0 01-2.16 0v-1.254c.362.154.726.24 1.08.24zm-5.83 6.536v-1.94c0-.425.186-.817.496-1.084l2.412 3.23H2.552a.206.206 0 01-.206-.206zm11.171-2.737c0-.752.45-1.423 1.145-1.71l1.798-.74a10.843 10.843 0 012.227 5.392h-5.17v-2.942zm16.236 2.943v-2.943c0-.29-.041-.572-.117-.84l1.885-.777c.024 1.55.167 3.179 1.03 4.56h-2.798zm2.993-5.478v-.71c.36.17.724.267 1.08.267.356 0 .72-.096 1.08-.268v.714c0 1.846 0 3.751-1.08 5.155-1.08-1.402-1.08-3.309-1.08-5.157v-.001zm6.91 5.272a.206.206 0 01-.206.206H35.1c.863-1.382 1.007-3.01 1.03-4.56l2.635 1.085c.54.223.89.745.89 1.33v1.939z"/></g><defs><clipPath id="clip0"><path fill="#fff" d="M0 0h42v42H0z"/></clipPath></defs></symbol><symbol xmlns="http://www.w3.org/2000/svg" viewBox="0 0 42 42" id="saw"><g clip-path="url(#clip0)" fill="currentColor"><path d="M40.202 14.898h-5.319l-.036-.776a.936.936 0 00-.446-.755l-1.287-.79.796-.365a.938.938 0 00.46-1.241l-.902-1.965a.936.936 0 00-.696-.532l-1.638-.275.668-.831a.938.938 0 00-.099-1.28L30.092 4.62a.935.935 0 00-.85-.218l-1.468.352.304-.82a.937.937 0 00-.552-1.204l-2.027-.752a.936.936 0 00-.869.116l-1.352.964-.115-1.06a.94.94 0 00-.975-.835l-2.178.101a.935.935 0 00-.755.446l-.79 1.288-.364-.796a.937.937 0 00-1.242-.46l-1.416.65a.94.94 0 00-.496.55l-.726 2.143-.965-.776a.938.938 0 00-1.279.1l-1.062 1.165a.94.94 0 00-.242.7l.16 2.134-1.011-.375a.938.938 0 00-1.204.553l-.542 1.46a.94.94 0 00.039.74l1.001 2.03-1.23.133a.938.938 0 00-.834.974l.045.975H1.798A1.8 1.8 0 000 16.696v12.425a1.8 1.8 0 001.798 1.798h1.066L1.457 39.06a1.519 1.519 0 001.496 1.777H4.25c.661 0 1.242-.422 1.445-1.052l1.417-4.388H34.89l1.417 4.388c.203.63.784 1.053 1.445 1.053h1.296a1.52 1.52 0 001.496-1.778l-.564-3.266a.615.615 0 10-1.213.21l.565 3.266a.288.288 0 01-.284.337H37.75a.288.288 0 01-.274-.2l-3.303-10.233h3.412l.69 3.99a.615.615 0 101.212-.21l-.654-3.78h1.368A1.8 1.8 0 0042 27.376v-10.68a1.8 1.8 0 00-1.798-1.798zm-30.535-.905a.937.937 0 00.739-1.345l-1.132-2.292.396-1.066 1.165.432a.936.936 0 001.259-.948l-.184-2.465.79-.867c.836.573 1.197 1.247 1.926 1.034a.937.937 0 00.625-.598l.82-2.42 1.034-.475.473 1.03a.937.937 0 001.65.098l.995-1.625 1.746-.08.14 1.284a.936.936 0 001.475.662l1.634-1.166 1.604.595-.393 1.062a.935.935 0 001.096 1.236l1.853-.444 1.292 1.177-.81 1.008a.936.936 0 00.576 1.51l1.98.331.713 1.556-1.03.472a.937.937 0 00-.098 1.65l1.625.995.026.564h-5.915l-.003-.099a6.738 6.738 0 00-7.046-6.421c-3.537.164-6.316 3.04-6.424 6.52H8.329l-.035-.755 1.373-.15zm11.187-2.034a3.16 3.16 0 00-3.002 2.94h-2.358a5.506 5.506 0 015.25-5.292 5.508 5.508 0 015.761 5.25v.041h-2.357a3.158 3.158 0 00-3.294-2.939zm2.06 2.94h-3.828a1.929 1.929 0 011.825-1.71 1.928 1.928 0 012.002 1.71zM4.523 39.406a.287.287 0 01-.275.2H2.953a.288.288 0 01-.284-.337l1.444-8.35h3.15l-2.74 8.487zm29.968-5.241H7.508l1.048-3.247h6.285c.929 0 1.685-.756 1.685-1.684v-.06h3.859v.245a3.066 3.066 0 003.062 3.062 3.066 3.066 0 003.063-3.062v-.246h6.37l1.612 4.992zm-17.966-6.222v-2.801h2.76a1.1 1.1 0 011.099 1.1v1.7h-3.86zm5.09 1.476v-.246h3.663v.246c0 1.01-.822 1.832-1.832 1.832a1.834 1.834 0 01-1.832-1.832zm19.154-2.044a.568.568 0 01-.568.568H21.615v-1.702a2.333 2.333 0 00-2.33-2.33h-2.76v-1.025c0-.93-.755-1.685-1.684-1.685H6.757a.615.615 0 000 1.23h8.084c.25 0 .454.204.454.455v6.348c0 .25-.204.454-.454.454H1.798a.568.568 0 01-.568-.568v-6.688h2.65a.615.615 0 100-1.231H1.23v-4.506c0-.313.255-.567.568-.567h38.404c.313 0 .568.254.568.567v10.68z"/><path d="M2.957 26.06a2.363 2.363 0 002.36 2.361 2.363 2.363 0 002.36-2.36 2.363 2.363 0 00-2.36-2.361 2.363 2.363 0 00-2.36 2.36zm3.49 0a1.131 1.131 0 01-2.26 0c0-.623.507-1.13 1.13-1.13.623 0 1.13.507 1.13 1.13zm4.762 2.361a2.363 2.363 0 002.36-2.36 2.363 2.363 0 00-2.36-2.36 2.363 2.363 0 00-2.36 2.36 2.363 2.363 0 002.36 2.36zm0-3.49a1.131 1.131 0 010 2.26c-.623 0-1.13-.507-1.13-1.13 0-.623.507-1.13 1.13-1.13z"/></g><defs><clipPath id="clip0"><path fill="#fff" d="M0 0h42v42H0z"/></clipPath></defs></symbol><symbol xmlns="http://www.w3.org/2000/svg" viewBox="0 0 42 42" id="toolbox"><g clip-path="url(#clip0)" fill="currentColor"><path d="M41.847 25.456l-.004-.01a2.224 2.224 0 00-.347-.569L39.9 23.016V11.725a7.693 7.693 0 00-4.237-6.873l.037-2.945A1.407 1.407 0 0034.515.506L32.948.262a1.41 1.41 0 00-1.554.974l-.851 2.789H16.1a7.709 7.709 0 00-7.7 7.7v8.4H5.544a2.107 2.107 0 00-1.596.734L.506 24.876A2.09 2.09 0 000 26.243v14.882a.7.7 0 00.7.7h40.6a.7.7 0 00.7-.7V26.243c0-.267-.05-.53-.148-.779l-.005-.008zm-12.774-.431l-1.009-4.077c.097-.228.195-.456.294-.683.682-1.55 1.388-3.154 1.155-4.95l3.237.503h.003l.481.05c-.802 1.675-.607 3.459-.435 5.029l.01.102c.15 1.438.286 2.803-.198 4.025h-3.538zm-15.773.7v2.8a2.102 2.102 0 01-2.1 2.1H9.8a2.102 2.102 0 01-2.1-2.1v-2.8h5.6zm22.4-5.6h-1.574a6.796 6.796 0 01.372-3.655c.186-.39.174-.845-.032-1.224a1.426 1.426 0 00-.813-.678l.537-3.459.547-1.792c.62.648.966 1.51.963 2.408v8.4zm-2.997-8.566l-.43 2.767-1.388-.215.429-2.768 1.09.17.3.046zm-2.67-1.093l-.536 3.458a1.427 1.427 0 00-.987.4c-.31.3-.458.73-.398 1.156a6.267 6.267 0 01-.604 3.217l-1.812-7.323a1.408 1.408 0 00-.655-.868 1.361 1.361 0 00-1.038-.147l-5.435 1.343a1.402 1.402 0 00-1.027 1.696l1.664 6.727H12.6v-8.4a3.504 3.504 0 013.5-3.5h13.962l-.029 2.241zM19.551 21.525l.782 3.163-2.711-3.163h1.929zm4.426 3.5a.69.69 0 00-.01-.238.7.7 0 00-.848-.511l-1.363.337-.336-1.359 1.362-.337a.702.702 0 00.339-1.167.7.7 0 00-.675-.192l-1.362.337-.335-1.36 1.36-.336a.7.7 0 00-.336-1.36l-1.36.338-.337-1.36 1.361-.336a.7.7 0 10-.336-1.36l-1.36.337-.841-3.396 5.439-1.344 3.292 13.307h-3.654zm10.292-3.5h2.187a.715.715 0 01.532.245l2.79 3.255h-5.69a9.336 9.336 0 00.181-3.5zm4.23-9.8v9.657l-.449-.525a2.075 2.075 0 00-.95-.613v-8.52a4.847 4.847 0 00-1.915-3.875l.4-1.309c.01-.035.01-.072.017-.108a6.29 6.29 0 012.898 5.293zm-5.766-10.08l1.567.245-.054 4.24v.002l-1.239 4.058-.592-.092-.975-.153.03-2.413.002-.007-.001-.007.023-1.816 1.239-4.057zM9.8 11.725a6.307 6.307 0 016.3-6.3h14.035a1.359 1.359 0 00-.041.26l-.015 1.14H16.1a4.905 4.905 0 00-4.899 4.9v12.6H9.8v-12.6zM1.4 26.243c0-.167.059-.328.168-.455l3.442-4.016a.717.717 0 01.534-.247H8.4v2.8h-.7a1.4 1.4 0 00-1.4 1.4v2.8a3.504 3.504 0 003.5 3.5h1.4a3.504 3.504 0 003.5-3.5v-2.8a1.4 1.4 0 00-1.4-1.4h-.7v-2.8h2.856a.715.715 0 01.532.245l3.436 4.008a.8.8 0 01.126.203.71.71 0 01.05.262v14.182H1.4V26.243zM21 40.425v-14h19.6v14H21z"/><path d="M21.955 13.746a.7.7 0 10.337 1.36.7.7 0 00-.337-1.36zM24.5 27.825h-1.4a.7.7 0 100 1.4h1.4a.7.7 0 000-1.4zm14 0H27.3a.7.7 0 100 1.4h11.2a.7.7 0 100-1.4z"/></g><defs><clipPath id="clip0"><path fill="#fff" d="M0 0h42v42H0z"/></clipPath></defs></symbol><symbol xmlns="http://www.w3.org/2000/svg" viewBox="0 0 42 42" id="gift-car"><path d="M39.375 25.03v-2.06a7.88 7.88 0 00-7.219-7.842V11.65a3.117 3.117 0 00-4.987-2.494l-3.043 2.283a2.523 2.523 0 00-2.314 0l-3.043-2.283a3.118 3.118 0 00-4.988 2.494v4.265c.003.754.282 1.481.783 2.044a18.09 18.09 0 00-2.187 1.664l-.871.775-7.735 1.653a2.289 2.289 0 00-1.802 2.231v1.97h-.657a.656.656 0 00-.656.655v2.625a.656.656 0 00.656.657h4.653a3.933 3.933 0 007.757 0h15.212a3.932 3.932 0 007.757 0h2.028a2.62 2.62 0 00.656-5.157zm-2.859-.092a5.889 5.889 0 00-8.986 1.968h-1.936v-5.25H37.93c.088.432.132.872.132 1.313v1.969h-1.547zm-20.918 3.28h4.746v.657H15.71a5.857 5.857 0 00-.113-.656zm1.3-9.187a3.137 3.137 0 001.87-.623l1.576-1.181v3.117h-6.79a16.562 16.562 0 012.16-1.55c.375.156.778.237 1.184.237zm4.758-2.789l.156-.117a2.524 2.524 0 002.314 0l.155.117v12.633h-2.625V16.242zm9.188 4.102h-5.25v-3.117l1.575 1.18a3.092 3.092 0 003.675.038v1.899zm-5.25 7.875h1.464a5.8 5.8 0 00-.113.656h-1.351v-.656zm11.917-7.875h-5.355V16.44a6.574 6.574 0 015.355 3.904zm-9.555-10.14a1.804 1.804 0 012.888 1.444v4.266a1.805 1.805 0 01-2.888 1.444l-2.812-2.11c.116-.176.21-.366.28-.565l2.55 1.02.489-1.219-1.759-.703 1.759-.703-.488-1.219-2.55 1.02a2.68 2.68 0 00-.28-.565l2.811-2.11zm-3.675 3.577a1.312 1.312 0 11-2.625 0 1.312 1.312 0 012.625 0zm-9.187-2.133a1.805 1.805 0 012.887-1.443l2.812 2.109c-.116.177-.21.367-.28.566l-2.55-1.02-.488 1.219 1.758.702-1.758.703.488 1.22 2.55-1.021c.07.2.164.39.28.566l-2.812 2.109a1.804 1.804 0 01-2.887-1.444V11.65zM11.88 21.657h8.463v5.25h-5.217a5.885 5.885 0 00-9.271-1.718.65.65 0 00.05-.25v-2.001l5.975-1.28zm-7.835 1.68l.548-.118v1.063H3.28a.972.972 0 01.765-.945zm-.765 2.258h1.97c.086 0 .17-.018.25-.05-.206.22-.394.456-.564.706H3.281v-.656zm-1.31 1.968h2.313a5.82 5.82 0 00-.306 1.312H1.97v-1.312zm7.875 4.593a2.625 2.625 0 110-5.249 2.625 2.625 0 010 5.25zm0-6.562a3.942 3.942 0 00-3.879 3.281h-.662a4.587 4.587 0 019.082 0h-.663a3.942 3.942 0 00-3.878-3.281zm22.968 6.562a2.625 2.625 0 110-5.249 2.625 2.625 0 010 5.25zm0-6.562a3.942 3.942 0 00-3.878 3.281h-.663a4.587 4.587 0 019.083 0h-.663a3.942 3.942 0 00-3.879-3.281zm5.907 3.281h-.039a5.86 5.86 0 00-.96-2.625h.999a1.313 1.313 0 010 2.625z" fill="currentColor"/><path d="M9.844 30.844a1.313 1.313 0 100-2.625 1.313 1.313 0 000 2.625zm22.969 0a1.313 1.313 0 100-2.625 1.313 1.313 0 000 2.625z" fill="currentColor"/></symbol><symbol xmlns="http://www.w3.org/2000/svg" viewBox="0 0 42 42" id="license"><path d="M40.844 11.434L30.566 1.156A3.975 3.975 0 0027.774 0c-1.04 0-2.056.421-2.791 1.156L1.155 24.983A3.92 3.92 0 000 27.774a3.92 3.92 0 001.156 2.792l10.278 10.278A3.975 3.975 0 0014.226 42c1.04 0 2.056-.421 2.791-1.156l23.827-23.827A3.92 3.92 0 0042 14.226a3.92 3.92 0 00-1.156-2.792zm-4.147 5.898l.958.958L18.29 37.655l-.958-.958 19.365-19.365zM14.226 37.888L4.112 27.774 27.774 4.112l10.114 10.114-23.662 23.662zm-3.107-1.19l-.958.957-5.816-5.816.958-.958 5.816 5.816zm-5.816-12.03l-.958-.958L23.71 4.345l.958.958L5.303 24.668zM30.88 5.303l.958-.958 5.816 5.816-.958.958-5.816-5.816zm-4.94-3.189a2.614 2.614 0 011.833-.76c.683 0 1.351.278 1.834.76l1.273 1.273-.958.958-1.274-1.274c-.462-.459-1.286-.46-1.75.001l-1.274 1.273-.957-.958 1.272-1.273zM1.354 27.774c0-.692.27-1.344.76-1.834l1.272-1.272.958.957L3.071 26.9c-.23.23-.361.55-.361.874 0 .325.131.644.362.876l1.273 1.273-.958.958-1.273-1.273a2.577 2.577 0 01-.76-1.834zM16.06 39.886a2.613 2.613 0 01-1.834.76 2.615 2.615 0 01-1.834-.76l-1.273-1.273.958-.958 1.274 1.274c.231.23.55.361.875.361.324 0 .643-.131.876-.362l1.273-1.273.957.958-1.272 1.273zM39.886 16.06l-1.273 1.272-.958-.957 1.274-1.275c.23-.23.361-.55.361-.874a1.25 1.25 0 00-.362-.876l-1.273-1.273.958-.958 1.273 1.273c.49.49.76 1.142.76 1.834 0 .692-.27 1.344-.76 1.834z" fill="currentColor"/><path d="M11.914 29.129l-.397.396a.98.98 0 01-1.355 0l-1.752-1.75L9.484 26.7a.98.98 0 011.355 0l.199.199.957-.958-.198-.2c-.875-.872-2.396-.873-3.27 0l-2.033 2.033 2.71 2.71c.874.873 2.396.874 3.27 0l.397-.397a.98.98 0 011.355 0l1.752 1.752-1.074 1.073a.98.98 0 01-1.355 0l-.199-.198-.957.958.198.199a2.3 2.3 0 001.635.677 2.3 2.3 0 001.636-.677l2.032-2.032-2.71-2.71c-.874-.874-2.396-.874-3.27 0zm1.354-3.387l2.99 2.99 3.667-3.667-2.99-2.99-3.667 3.667zm2.99 1.074l-1.075-1.074 1.752-1.752 1.075 1.075-1.752 1.751zm6.774-2.032l-.054-.054-1.2-6.003a2.584 2.584 0 00-.71-1.326l-.383-.383c-.49-.49-1.14-.76-1.834-.76a2.596 2.596 0 00-1.834 4.428l.794.793.958-.958-.794-.793a1.24 1.24 0 011.752-1.752l.383.383c.174.173.291.392.339.633l1.282 6.407 1.301 1.3 3.866-3.865-.958-.958-2.908 2.908zm3.213-13.045c-.58-.58-1.353-.9-2.173-.9A3.076 3.076 0 0021 13.91c0 .822.32 1.593.9 2.173l4.017 4.016c.58.58 1.352.9 2.172.9a3.076 3.076 0 003.072-3.073c0-.82-.32-1.593-.9-2.172l-4.016-4.016zm1.844 7.906c-.458 0-.89-.179-1.214-.503l-4.017-4.017a1.707 1.707 0 01-.503-1.213 1.72 1.72 0 011.717-1.719c.459 0 .89.18 1.215.504l4.017 4.016c.324.324.503.756.503 1.214a1.72 1.72 0 01-1.718 1.718zm-.315-12.474l-1.427 1.427.77 3.083 1.314-.33-.536-2.143 6.174 6.174.958-.958-7.253-7.253z" fill="currentColor"/></symbol><symbol xmlns="http://www.w3.org/2000/svg" viewBox="0 0 42 42" id="logo-design"><g clip-path="url(#clip0)"><path d="M42 12.747c0-1.05-.409-2.038-1.152-2.78A3.937 3.937 0 0035.4 9.86a2.206 2.206 0 00-2.644.357 2.206 2.206 0 00-.36 2.642l-6.155 6.155V9.808h3.94a.615.615 0 100-1.23h-3.94V5.435a.615.615 0 10-1.23 0v3.143H10.42a.615.615 0 100 1.23h2.684l-7.297 4.21c-.007.003-.014.008-.021.013V9.808h2.172a.615.615 0 100-1.23H5.786V5.435a.615.615 0 10-1.23 0v3.143H.615a.615.615 0 100 1.23h3.94v22.383H.615a.615.615 0 100 1.23h3.94v3.144a.615.615 0 101.23 0v-3.143H21.07a.615.615 0 000-1.23h-3.378l2.594-1.498a1.44 1.44 0 001.432.264l3.292-1.173v2.406h-1.48a.615.615 0 100 1.23h1.48v3.144a.615.615 0 101.23 0v-3.143h3.94a.615.615 0 100-1.23h-3.94v-2.846l1.095-.39a.638.638 0 00.059-.025l.013-.007a.581.581 0 00.095-.06l.014-.01a.61.61 0 00.047-.042l10.392-10.393a2.202 2.202 0 002.999-3.004A3.9 3.9 0 0042 12.747zm-2.022-1.91c.51.51.791 1.188.791 1.91 0 .643-.223 1.252-.634 1.738l-3.804-3.805a2.705 2.705 0 013.647.157zM23.626 28.97l-1.782-1.782 1.05-2.945c.542-.057.927.014 1.123.21.235.234.29.743.16 1.47v.01a.623.623 0 00-.008.124c.017.38.364.644.722.58.727-.13 1.236-.075 1.47.16.196.196.267.581.21 1.124l-2.945 1.05zm3.606-3.043a1.95 1.95 0 00-.963-.512l5.488-5.487a.615.615 0 10-.87-.87l-5.488 5.487a1.95 1.95 0 00-.512-.963 1.95 1.95 0 00-.963-.511l9.285-9.285 1.474 1.474-1.788 1.789a.615.615 0 00.87.87l1.789-1.788 1.474 1.474-9.285 9.285a1.948 1.948 0 00-.511-.963zM25.01 9.808v4.227l-.017-.01-7.296-4.217h7.313zm-19.222 6.37c0-.45.244-.87.635-1.095l8.347-4.815c.39-.225.875-.225 1.265.001l8.342 4.82c.39.227.633.647.633 1.097v4.06l-2.713 2.712V18.46c0-.889-.477-1.717-1.246-2.162l-4.402-2.543a2.503 2.503 0 00-2.496-.002l-4.404 2.541a2.504 2.504 0 00-1.25 2.161v5.085c0 .889.477 1.717 1.246 2.162l4.402 2.543a2.493 2.493 0 002.496.001l4.404-2.54.024-.015-1.213 3.406a1.473 1.473 0 00-.085.473l-3.746 2.161a1.27 1.27 0 01-1.266 0l-8.342-4.82a1.268 1.268 0 01-.63-1.098V16.18zm15.279 2.282v5.084c0 .45-.244.87-.635 1.096l-4.404 2.54c-.39.226-.875.226-1.265 0l-4.402-2.544a1.268 1.268 0 01-.632-1.096v-5.085c0-.45.243-.87.634-1.095l4.405-2.54a1.265 1.265 0 011.265 0l4.402 2.544c.39.225.632.645.632 1.096zM5.786 32.191v-4.226l.017.01 7.295 4.216H5.786zm15.519-2.393a.217.217 0 01-.235-.052.216.216 0 01-.053-.236l.37-1.038.956.956-1.038.37zM39.726 17.19a.973.973 0 01-1.374 0l-.018-.019-4.69-4.69-.02-.018A.973.973 0 0135 11.089l4.727 4.727a.973.973 0 010 1.374z" fill="currentColor"/></g><defs><clipPath id="clip0"><path fill="#fff" d="M0 0h42v42H0z"/></clipPath></defs></symbol><symbol xmlns="http://www.w3.org/2000/svg" viewBox="0 0 18 18" id="arrow"><path d="M15.188 9.562a.562.562 0 100-1.125H4.277l4.535-4.081a.562.562 0 10-.751-.837L2.437 8.581a.563.563 0 000 .837l5.625 5.063a.563.563 0 00.751-.837L4.278 9.562h10.91z" fill="currentColor"/></symbol><symbol xmlns="http://www.w3.org/2000/svg" viewBox="0 0 20 20" id="viber"><path d="M9.812 2.5c-1.187 0-4.125.125-5.687 1.625C3 5.188 2.562 6.813 2.5 8.75c-.125 3.063.562 5 1.687 6 .25.188.875.688 2.063 1.063v1.562s0 .625.375.75c.062 0 .125.063.187.063.375 0 .688-.438 1.125-.875.375-.438.688-.75.875-1.063h1.375c1.188 0 4.125-.125 5.688-1.625 1.125-1.125 1.562-2.75 1.562-4.813.063-.312.063-.687.063-1.062-.063-2.313-.75-3.875-1.688-4.75-.375-.313-2-1.5-5.5-1.5h-.5zm-.125 1.188h.563c3.312 0 4.562 1.062 4.687 1.187.75.625 1.188 2 1.25 3.813v.25c.063.374.063.687.063.874-.063 1.876-.438 3.126-1.188 3.938C13.75 14.938 11 15 10.25 15H9.062l-1 1.125-.625.688-.125.187c-.125.125-.312.375-.437.438v-2.813c-1.25-.313-1.75-.75-1.875-.875-.875-.75-1.375-2.563-1.25-5v-.625c.125-1.5.5-2.5 1.125-3.188 1.312-1.187 4.062-1.25 4.812-1.25zm-.062 1.374a.22.22 0 000 .438c2.312 0 4.312 1.563 4.312 4.5a.22.22 0 00.438 0c0-3.188-2.125-5-4.75-4.938zm-2.477.579a.547.547 0 00-.397.108c-.625.313-1.251.94-1.064 1.627 0 0 .125.561.813 1.749.375.563.687 1.063 1 1.438.312.437.812.937 1.312 1.312 1 .813 2.563 1.625 3.25 1.813.625.187 1.313-.438 1.625-1.063a.596.596 0 00-.187-.75c-.375-.375-1-.813-1.438-1.063-.312-.187-.687-.062-.812.126l-.313.374c-.125.188-.437.188-.437.188-2.063-.563-2.625-2.688-2.625-2.688s0-.25.187-.437l.375-.313c.188-.124.313-.5.125-.812-.125-.188-.312-.563-.5-.75-.187-.25-.562-.688-.562-.688a.601.601 0 00-.352-.171zm2.915.671c-.313-.062-.376.438-.063.438 1.75.125 2.75 1.313 2.687 2.813-.062.312.438.312.438 0 .063-1.75-1.063-3.188-3.063-3.25zM10.25 7.5c-.313-.063-.313.438 0 .438.75 0 1.125.437 1.125 1.187.063.313.5.313.5 0-.063-1-.625-1.625-1.625-1.625z" fill="currentColor"/></symbol><symbol xmlns="http://www.w3.org/2000/svg" viewBox="0 0 18 18" id="telegram"><path d="M15.498 2.788L2.201 7.916c-.908.364-.902.87-.167 1.096l3.414 1.065 7.9-4.984c.373-.227.714-.105.434.144l-6.4 5.776H7.38h.002l-.236 3.52c.345 0 .498-.158.691-.345l1.658-1.613 3.45 2.548c.636.35 1.092.17 1.25-.589l2.265-10.67c.232-.93-.355-1.35-.962-1.076z" fill="currentColor"/></symbol><symbol xmlns="http://www.w3.org/2000/svg" viewBox="0 0 22 30" id="play"><path d="M18.712 15L2.75 3.771v22.455l15.962-11.228zm2.178-2.321c.337.234.618.572.813.98.194.407.297.87.297 1.34 0 .472-.103.934-.297 1.342a2.49 2.49 0 01-.813.98L3.39 29.63C1.96 30.637 0 29.487 0 27.31V2.688C0 .51 1.96-.64 3.391.368l17.5 12.31z" fill="currentColor"/></symbol><symbol xmlns="http://www.w3.org/2000/svg" viewBox="0 0 18 18" id="comment"><path d="M9 1.125c4.971 0 9 3.273 9 7.313 0 1.743-.752 3.34-2.004 4.594.44 1.772 1.91 3.35 1.927 3.368a.28.28 0 01.052.306.275.275 0 01-.256.169c-2.331 0-4.078-1.118-4.943-1.807-1.15.432-2.426.682-3.776.682-4.971 0-9-3.273-9-7.313 0-4.039 4.029-7.312 9-7.312z" fill="currentColor"/></symbol><symbol xmlns="http://www.w3.org/2000/svg" viewBox="0 0 18 18" id="like"><path d="M8.973 4.596C6.218.341.643 2.66.643 7.295c0 3.48 7.644 8.925 8.33 9.633.691-.708 7.955-6.153 7.955-9.633 0-4.6-5.195-6.954-7.955-2.699z" fill="currentColor"/></symbol><symbol fill="none" xmlns="http://www.w3.org/2000/svg" viewBox="0 0 264 31" id="logo-white"><path d="M0 26.238v-4.85h7.959v4.602c0 .94.276 1.7.829 2.28.552.58 1.326.87 2.32.87 1.493 0 2.515-.221 3.068-.663.553-.47.898-1.16 1.036-2.073.139-.94.208-1.907.208-2.901 0-1.023.014-1.88.041-2.57l-.041-.54-.083-1.16c-.138-1.437-.857-2.376-2.156-2.819-1.27-.442-4.2-.663-8.787-.663-.166 0-.373-.013-.622-.041-.221-.055-.636-.18-1.243-.373-.608-.194-1.106-.884-1.493-2.073-.387-1.188-.58-3.302-.58-6.342 0-2.349.4-3.979 1.202-4.89.801-.913 2.294-1.52 4.477-1.825l1.45-.166L8.54 0h.87c.636 0 2.363.083 5.182.249 2.818.138 4.808.207 5.969.207l2.404.207-.58 2.363-1.783-.497-.787-.208-.954-.207a26.45 26.45 0 00-1.99-.29 14.707 14.707 0 00-2.238-.166c-2.183 0-3.703.415-4.56 1.244-.856.829-1.284 2.293-1.284 4.393 0 2.57.207 4.242.621 5.016.415.774 1.368 1.16 2.86 1.16l1.576.166h.29l3.855.125.621.041c2.128.276 3.51.857 4.145 1.741.664.857.995 2.598.995 5.223l-.041 1.782c0 3.814-.83 6.121-2.487 6.922-1.63.774-5.997 1.161-13.099 1.161-1.298 0-2.266-.041-2.901-.124-.636-.083-1.423-.249-2.363-.498-.912-.276-1.616-.704-2.114-1.285C.25 28.145 0 27.316 0 26.238zm27.62-3.15V.538h8.373v24.54c0 1.464.304 2.514.913 3.15.607.636 1.644.953 3.108.953 2.653 0 3.98-1.298 3.98-3.896V.539h8.373V22.88l-.042.622c0 2.32-.373 3.924-1.119 4.808-.746.884-2.225 1.547-4.435 1.99l-2.86.414a20.69 20.69 0 01-2.363.124c-1.188 0-2.197-.013-3.026-.041-.801-.028-1.561-.055-2.28-.083-3.758-.36-6.134-.981-7.13-1.865-.994-.885-1.491-2.805-1.491-5.762zm32.509 7.295L54.45.54h8.456l4.394 25.7L71.818.54h2.404L69 30.383h-8.87zm33.391 0H76.277V.54H93.27l.58 2.155-.497-.041-2.03-.207a41.659 41.659 0 00-3.607-.25 60.642 60.642 0 00-2.694-.082c-.691 0-1.396.014-2.114.041h-2.156v1.161l.788.083.414.041 1.161.125c.801 0 1.299.663 1.492 1.99l.042.372v8.912c1.05 0 2.072-.027 3.067-.082a34.011 34.011 0 003.15-.332l1.16-.207v2.445l-1.035-.166c-1.548-.193-2.847-.29-3.897-.29a17.6 17.6 0 00-2.487.166V28.56l2.073.041c1.603 0 2.957-.069 4.062-.207a34.302 34.302 0 003.648-.663l-.87 2.652zm6.534 0H97.65V.54h9.699l11.358 25.368V.539h2.404v29.844h-9.534L100.054 4.808v25.575zm25.203 0V.54h8.373v29.844h-8.373zm20.881 0h-8.373V.788l2.57-.083 3.067-.125 5.886-.248 2.694-.083c4.201 0 6.826.373 7.876 1.119 1.078.718 1.617 2.694 1.617 5.927l.041 1.741v.498l-.083 1.368c0 1.437-.345 2.473-1.036 3.108-.691.636-1.921 1.078-3.689 1.327l-5.057.704 5.181.498c.138 0 .318.083.539.249.249.138.539.483.87 1.036l.249.622 3.358 11.937h-7.006c-.856 0-1.561-.594-2.114-1.782l-.29-.829-2.818-10.155a1.687 1.687 0 00-.332-.54c-.138-.193-.387-.372-.746-.538a2.47 2.47 0 00-1.036-.249 4.402 4.402 0 01-.498.042l-.58.082-.29.083v13.886zm-3.897-27.025l1.451.165c.636 0 1.078.056 1.327.166.276.11.525.332.746.663.248.304.373.664.373 1.078v9.492l.456.042h.621c1.382 0 2.501-.125 3.358-.373.857-.277 1.451-.622 1.782-1.037.36-.442.581-.925.664-1.45.082-.525.124-1.451.124-2.778V6.01c0-.304-.028-.566-.083-.787-.028-.249-.166-.719-.414-1.41-.249-.718-.885-1.188-1.907-1.409-.995-.249-3.537-.373-7.627-.373l-.871.042v1.285zm26.363 10.155L163.049.539h8.954l4.932 11.482L182.117.539h2.528l-6.715 15.42v14.424h-8.166v-12.31c0-.498.194-.912.581-1.244.414-.36.801-.567 1.16-.622l3.275-.248-3.233-.332c-.995-.11-1.644-.263-1.948-.456-.277-.221-.608-.774-.995-1.658zm39.62 16.87h-23.876v-1.202h23.876v1.202zm5.31-7.295V.54h8.373v24.539c0 1.465.304 2.515.912 3.15.608.636 1.644.954 3.109.954 2.653 0 3.979-1.3 3.979-3.897V.54h8.373v22.342l-.041.622c0 2.321-.373 3.924-1.119 4.808-.746.884-2.225 1.548-4.436 1.99l-2.86.414a20.66 20.66 0 01-2.362.125 91.8 91.8 0 01-3.026-.042 587.27 587.27 0 01-2.28-.083c-3.758-.359-6.135-.98-7.13-1.865-.994-.884-1.492-2.805-1.492-5.762zm28.654 7.296h-2.404L246.167.539h9.285l7.668 29.845h-5.72c-1.078 0-1.879-.152-2.404-.456-.497-.332-.843-.885-1.036-1.658l-1.534-5.928-8.497.042-1.741 8zm2.279-10.446l7.379-.041-4.062-15.627-3.317 15.668z" fill="#fff"/></symbol><symbol xmlns="http://www.w3.org/2000/svg" viewBox="0 0 18 18" id="phone"><path d="M13.5 7.313h-1.125a1.689 1.689 0 00-1.688-1.688V4.5A2.816 2.816 0 0113.5 7.313z" fill="currentColor"/><path d="M15.75 7.313h-1.125a3.942 3.942 0 00-3.938-3.938V2.25a5.068 5.068 0 015.063 5.063zm-1.125 9h-.095C3.476 15.677 1.907 6.35 1.688 3.504a1.687 1.687 0 011.687-1.817H6.34a1.125 1.125 0 011.047.71L8.24 4.5a1.125 1.125 0 01-.248 1.215l-1.198 1.21a5.265 5.265 0 004.264 4.274l1.22-1.209a1.125 1.125 0 011.221-.23l2.12.849a1.124 1.124 0 01.693 1.046v2.97a1.687 1.687 0 01-1.688 1.688zm-11.25-13.5a.563.563 0 00-.562.607C3.07 6.75 4.73 14.625 14.59 15.188a.562.562 0 00.596-.528v-3.005l-2.12-.85-1.614 1.604-.27-.034c-4.894-.613-5.558-5.507-5.558-5.558l-.034-.27 1.6-1.613-.844-2.12h-2.97z" fill="currentColor"/></symbol><symbol xmlns="http://www.w3.org/2000/svg" viewBox="0 0 18 18" id="pin"><path d="M9 4.5a2.812 2.812 0 100 5.625A2.812 2.812 0 009 4.5zM9 9a1.687 1.687 0 110-3.375A1.687 1.687 0 019 9zm0-7.875a6.195 6.195 0 00-6.188 6.188c0 2.207 1.02 4.547 2.951 6.767a17.896 17.896 0 002.914 2.693.562.562 0 00.646 0 17.898 17.898 0 002.914-2.693c1.93-2.22 2.95-4.56 2.95-6.768A6.195 6.195 0 009 1.125zm0 14.483c-1.162-.912-5.063-4.271-5.063-8.296a5.063 5.063 0 1110.126 0c0 4.025-3.9 7.384-5.063 8.296z" fill="currentColor"/></symbol><symbol xmlns="http://www.w3.org/2000/svg" viewBox="0 0 18 18" id="mail"><path d="M14.156 3.375c1.088 0 1.969.881 1.969 1.969v7.312a1.969 1.969 0 01-1.969 1.969H3.844a1.969 1.969 0 01-1.969-1.969V5.344c0-1.088.881-1.969 1.969-1.969h10.312zm1.031 3.507L9.226 10.16a.468.468 0 01-.404.023l-.048-.023-5.961-3.28v5.775a1.031 1.031 0 001.03 1.031h10.313a1.032 1.032 0 001.031-1.03V6.881zm-1.03-2.57H3.843a1.031 1.031 0 00-1.031 1.032v.468L9 9.215l6.188-3.403v-.468a1.032 1.032 0 00-1.032-1.032z" fill="currentColor"/></symbol><symbol xmlns="http://www.w3.org/2000/svg" viewBox="0 0 36 36" id="scroll-down-btn"><path d="M17.999 34a10 10 0 01-10-10V12a10 10 0 0120 0v12a9.999 9.999 0 01-10 10zm0-30a8 8 0 00-8 8v12a8 8 0 0016 0V12a8 8 0 00-8-8z" fill="currentColor"/><path d="M17.999 15a1 1 0 01-1-1v-4a1 1 0 012 0v4a1 1 0 01-1 1z" fill="currentColor"/></symbol></svg>