<svg width="42" height="42" fill="none" xmlns="http://www.w3.org/2000/svg"><g clip-path="url(#clip0)" fill="#fff"><path d="M41.847 25.456l-.004-.01a2.224 2.224 0 00-.347-.569L39.9 23.016V11.725a7.693 7.693 0 00-4.237-6.873l.037-2.945A1.407 1.407 0 0034.515.506L32.948.262a1.41 1.41 0 00-1.554.974l-.851 2.789H16.1a7.709 7.709 0 00-7.7 7.7v8.4H5.544a2.107 2.107 0 00-1.596.734L.506 24.876A2.09 2.09 0 000 26.243v14.882a.7.7 0 00.7.7h40.6a.7.7 0 00.7-.7V26.243c0-.267-.05-.53-.148-.779l-.005-.008zm-12.774-.431l-1.009-4.077c.097-.228.195-.456.294-.683.682-1.55 1.388-3.154 1.155-4.95l3.237.503h.003l.481.05c-.802 1.675-.607 3.459-.435 5.029l.01.102c.15 1.438.286 2.803-.198 4.025h-3.538zm-15.773.7v2.8a2.102 2.102 0 01-2.1 2.1H9.8a2.102 2.102 0 01-2.1-2.1v-2.8h5.6zm22.4-5.6h-1.574a6.796 6.796 0 01.372-3.655c.186-.39.174-.845-.032-1.224a1.426 1.426 0 00-.813-.678l.537-3.459.547-1.792c.62.648.966 1.51.963 2.408v8.4zm-2.997-8.566l-.43 2.767-1.388-.215.429-2.768 1.09.17.3.046zm-2.67-1.093l-.536 3.458a1.427 1.427 0 00-.987.4c-.31.3-.458.73-.398 1.156a6.267 6.267 0 01-.604 3.217l-1.812-7.323a1.408 1.408 0 00-.655-.868 1.361 1.361 0 00-1.038-.147l-5.435 1.343a1.402 1.402 0 00-1.027 1.696l1.664 6.727H12.6v-8.4a3.504 3.504 0 013.5-3.5h13.962l-.029 2.241zM19.551 21.525l.782 3.163-2.711-3.163h1.929zm4.426 3.5a.69.69 0 00-.01-.238.7.7 0 00-.848-.511l-1.363.337-.336-1.359 1.362-.337a.702.702 0 00.339-1.167.7.7 0 00-.675-.192l-1.362.337-.335-1.36 1.36-.336a.7.7 0 00-.336-1.36l-1.36.338-.337-1.36 1.361-.336a.7.7 0 10-.336-1.36l-1.36.337-.841-3.396 5.439-1.344 3.292 13.307h-3.654zm10.292-3.5h2.187a.715.715 0 01.532.245l2.79 3.255h-5.69a9.336 9.336 0 00.181-3.5zm4.23-9.8v9.657l-.449-.525a2.075 2.075 0 00-.95-.613v-8.52a4.847 4.847 0 00-1.915-3.875l.4-1.309c.01-.035.01-.072.017-.108a6.29 6.29 0 012.898 5.293zm-5.766-10.08l1.567.245-.054 4.24v.002l-1.239 4.058-.592-.092-.975-.153.03-2.413.002-.007-.001-.007.023-1.816 1.239-4.057zM9.8 11.725a6.307 6.307 0 016.3-6.3h14.035a1.359 1.359 0 00-.041.26l-.015 1.14H16.1a4.905 4.905 0 00-4.899 4.9v12.6H9.8v-12.6zM1.4 26.243c0-.167.059-.328.168-.455l3.442-4.016a.717.717 0 01.534-.247H8.4v2.8h-.7a1.4 1.4 0 00-1.4 1.4v2.8a3.504 3.504 0 003.5 3.5h1.4a3.504 3.504 0 003.5-3.5v-2.8a1.4 1.4 0 00-1.4-1.4h-.7v-2.8h2.856a.715.715 0 01.532.245l3.436 4.008a.8.8 0 01.126.203.71.71 0 01.05.262v14.182H1.4V26.243zM21 40.425v-14h19.6v14H21z"/><path d="M21.955 13.746a.7.7 0 10.337 1.36.7.7 0 00-.337-1.36zM24.5 27.825h-1.4a.7.7 0 100 1.4h1.4a.7.7 0 000-1.4zm14 0H27.3a.7.7 0 100 1.4h11.2a.7.7 0 100-1.4z"/></g><defs><clipPath id="clip0"><path fill="#fff" d="M0 0h42v42H0z"/></clipPath></defs></svg>