<svg width="20" height="20" fill="none" xmlns="http://www.w3.org/2000/svg"><path d="M9.812 2.5c-1.187 0-4.125.125-5.687 1.625C3 5.188 2.562 6.813 2.5 8.75c-.125 3.063.562 5 1.687 6 .25.188.875.688 2.063 1.063v1.562s0 .625.375.75c.062 0 .125.063.187.063.375 0 .688-.438 1.125-.875.375-.438.688-.75.875-1.063h1.375c1.188 0 4.125-.125 5.688-1.625 1.125-1.125 1.562-2.75 1.562-4.813.063-.312.063-.687.063-1.062-.063-2.313-.75-3.875-1.688-4.75-.375-.313-2-1.5-5.5-1.5h-.5zm-.125 1.188h.563c3.312 0 4.562 1.062 4.687 1.187.75.625 1.188 2 1.25 3.813v.25c.063.374.063.687.063.874-.063 1.876-.438 3.126-1.188 3.938C13.75 14.938 11 15 10.25 15H9.062l-1 1.125-.625.688-.125.187c-.125.125-.312.375-.437.438v-2.813c-1.25-.313-1.75-.75-1.875-.875-.875-.75-1.375-2.563-1.25-5v-.625c.125-1.5.5-2.5 1.125-3.188 1.312-1.187 4.062-1.25 4.812-1.25zm-.062 1.374a.22.22 0 000 .438c2.312 0 4.312 1.563 4.312 4.5a.22.22 0 00.438 0c0-3.188-2.125-5-4.75-4.938zm-2.477.579a.547.547 0 00-.397.108c-.625.313-1.251.94-1.064 1.627 0 0 .125.561.813 1.749.375.563.687 1.063 1 1.438.312.437.812.937 1.312 1.312 1 .813 2.563 1.625 3.25 1.813.625.187 1.313-.438 1.625-1.063a.596.596 0 00-.187-.75c-.375-.375-1-.813-1.438-1.063-.312-.187-.687-.062-.812.126l-.313.374c-.125.188-.437.188-.437.188-2.063-.563-2.625-2.688-2.625-2.688s0-.25.187-.437l.375-.313c.188-.124.313-.5.125-.812-.125-.188-.312-.563-.5-.75-.187-.25-.562-.688-.562-.688a.601.601 0 00-.352-.171zm2.915.671c-.313-.062-.376.438-.063.438 1.75.125 2.75 1.313 2.687 2.813-.062.312.438.312.438 0 .063-1.75-1.063-3.188-3.063-3.25zM10.25 7.5c-.313-.063-.313.438 0 .438.75 0 1.125.437 1.125 1.187.063.313.5.313.5 0-.063-1-.625-1.625-1.625-1.625z" fill="#fff"/></svg>