<svg width="30" height="30" fill="none" xmlns="http://www.w3.org/2000/svg"><path d="M28.522 5.178h-8.588v-3.7a.41.41 0 00-.41-.41h-9.047a.41.41 0 00-.41.41v1.645H1.479a.41.41 0 00-.41.41v22.933a.41.41 0 00.41.41h8.998a.41.41 0 00.41-.41v-1.645h8.227v3.7a.41.41 0 00.41.41h8.998a.41.41 0 00.41-.41V5.588a.41.41 0 00-.41-.41zM10.067 26.056H4.969v-3.7a.41.41 0 00-.82 0v3.7h-2.26V3.943h2.26V6.55a.41.41 0 10.82 0V3.943h2.122V15.95a.41.41 0 10.82 0V3.943h2.156v22.113zm.82-24.168h2.14V6.55a.41.41 0 10.821 0V1.888h2.304v8.782a.41.41 0 10.82 0V1.888h2.142V24h-5.266v-8.533a.41.41 0 00-.82 0V24h-2.141V1.888zM28.112 28.11h-5.096v-3.7a.41.41 0 10-.82 0v3.7h-2.262V5.998h5.203v5.187a.41.41 0 10.82 0V5.998h2.157l-.002 22.113z" fill="#524440"/><path d="M13.438 11.813a.41.41 0 00.41-.41V9.348a.41.41 0 10-.82 0v2.055a.41.41 0 00.41.41zm3.125 5.652a.41.41 0 00.41-.41v-4.016a.41.41 0 00-.82 0v4.016a.41.41 0 00.41.41zm0 4.397a.41.41 0 00.41-.41v-1.607a.41.41 0 00-.82 0v1.607a.41.41 0 00.41.41zM22.605 8.04a.41.41 0 00-.41.41v8.605a.41.41 0 10.82 0V8.45a.41.41 0 00-.41-.41zm2.942 5.999a.41.41 0 00-.41.41v11.365a.41.41 0 10.82 0V14.449a.409.409 0 00-.41-.41zm-2.942 6.515a.41.41 0 00-.41.41v1.104a.41.41 0 10.82 0v-1.104a.41.41 0 00-.41-.41zM4.558 9.522a.41.41 0 00-.41.41v8.366a.41.41 0 00.82 0V9.933a.41.41 0 00-.41-.41zm2.942 10.2a.41.41 0 00-.41.41v2.055a.41.41 0 00.82 0v-2.055a.41.41 0 00-.41-.41z" fill="#524440"/></svg>